<?xml version="1.0" encoding="UTF-8"?>
<svg width="166px" height="116px" viewBox="0 0 166 116" version="1.1" xmlns="http://www.w3.org/2000/svg" xmlns:xlink="http://www.w3.org/1999/xlink">
    <!-- Generator: Sketch 52 (66869) - http://www.bohemiancoding.com/sketch -->
    <title>graphic</title>
    <desc>Created with Sketch.</desc>
    <g id="webdesign-1920" stroke="none" stroke-width="1" fill="none" fill-rule="evenodd">
        <g id="Product-01" transform="translate(-773.000000, -3957.000000)">
            <g id="wrapper">
                <g id="Function-feature-section-" transform="translate(0.000000, 3531.000000)">
                    <g id="inner" transform="translate(258.000000, 120.000000)">
                        <g id="feature" transform="translate(0.000000, 274.000000)">
                            <g id="function-graphic/03-F1" transform="translate(507.000000, 0.000000)">
                                <g id="graphic" transform="translate(0.000000, 32.000000)">
                                    <path d="M64.9609375,85 L91.9140625,31.5625 L91.9140625,31.4453125 L59.140625,31.4453125 L59.140625,28.6328125 L95.078125,28.6328125 L95.078125,31.6015625 L68.3203125,85 L64.9609375,85 Z M101.25,85 L101.25,51.1796875 L103.054687,51.1796875 L103.054687,65.96875 L103.125,65.96875 C104.25,62.546875 107.4375,60.296875 111.539062,60.296875 C116.882812,60.296875 120.445312,63.8359375 120.445312,69.296875 L120.445312,85 L118.640625,85 L118.640625,69.5078125 C118.640625,64.8203125 115.664062,61.9375 111.140625,61.9375 C106.359375,61.9375 103.054687,65.453125 103.054687,70.5390625 L103.054687,85 L101.25,85 Z" id="7h" fill="#21BA45"></path>
                                    <path d="M19.385,2.785 L19.385,1.66 L11.675,1.66 L11.675,2.785 L19.385,2.785 Z M19.385,4.615 L19.385,3.49 L11.675,3.49 L11.675,4.615 L19.385,4.615 Z M20.36,0.94 L20.36,5.35 L10.715,5.35 L10.715,0.94 L20.36,0.94 Z M14.015,8.17 L14.015,7.075 L11.165,7.075 L11.165,8.17 L14.015,8.17 Z M11.165,12.115 L14.015,11.8 L14.015,10.825 L11.165,10.825 L11.165,12.115 Z M11.165,8.935 L11.165,10.06 L14.015,10.06 L14.015,8.935 L11.165,8.935 Z M22.04,7.075 L14.975,7.075 L14.975,14.125 L14.015,14.125 L14.015,12.61 C12.155,12.85 10.295,13.09 8.9,13.255 L8.795,12.37 L10.25,12.22 L10.25,7.075 L8.93,7.075 L8.93,6.235 L22.04,6.235 L22.04,7.075 Z M20.345,8.89 L17.06,8.89 C17.42,9.775 17.945,10.555 18.605,11.23 C19.325,10.57 19.925,9.79 20.345,8.89 Z M20.96,8.05 L21.56,8.29 C21.095,9.73 20.285,10.9 19.28,11.83 C20.15,12.52 21.2,13.03 22.385,13.33 C22.175,13.525 21.92,13.885 21.77,14.11 C20.555,13.75 19.49,13.18 18.59,12.415 C17.645,13.135 16.595,13.66 15.515,14.02 C15.41,13.795 15.155,13.435 14.975,13.24 C15.995,12.94 17.015,12.445 17.93,11.785 C17.21,11.005 16.625,10.105 16.22,9.07 L16.835,8.89 L15.515,8.89 L15.515,8.08 L20.78,8.08 L20.96,8.05 Z M37.07,5.815 L31.355,5.815 C32.42,9.19 34.4,11.965 37.295,13.18 C37.055,13.405 36.74,13.81 36.56,14.11 C33.635,12.73 31.67,9.955 30.515,6.445 C29.81,9.415 28.205,12.415 24.47,14.125 C24.305,13.855 23.975,13.51 23.72,13.3 C27.485,11.665 28.985,8.695 29.6,5.815 L23.99,5.815 L23.99,4.795 L29.78,4.795 C30.02,3.175 30.005,1.66 30.02,0.49 L31.07,0.49 C31.055,1.69 31.04,3.19 30.815,4.795 L37.07,4.795 L37.07,5.815 Z M41,13 C41.18,8.77 41.96,6.07 44.12,3.07 L38.735,3.07 L38.735,2.02 L45.53,2.02 L45.53,2.755 C42.935,6.1 42.455,8.71 42.275,13 L41,13 Z M50.69,2.365 L48.38,2.365 L48.38,5.815 L50.69,5.815 L50.69,2.365 Z M48.38,10.285 L50.69,10.285 L50.69,6.7 L48.38,6.7 L48.38,10.285 Z M51.635,1.465 L51.635,11.185 L48.38,11.185 L48.38,12.385 L47.45,12.385 L47.45,1.465 L51.635,1.465 Z M52.94,9.79 L53.735,9.325 C54.515,10.09 55.37,11.17 55.7,11.905 L54.86,12.445 C54.53,11.71 53.705,10.585 52.94,9.79 Z M60.635,6.085 L58.67,6.085 L58.67,7.855 L60.47,7.855 L60.47,8.74 L58.67,8.74 L58.67,12.91 C58.67,13.495 58.52,13.795 58.085,13.945 C57.65,14.095 56.9,14.11 55.67,14.11 C55.625,13.855 55.49,13.45 55.34,13.18 C56.3,13.21 57.14,13.21 57.38,13.195 C57.635,13.195 57.71,13.12 57.71,12.895 L57.71,8.74 L51.965,8.74 L51.965,7.855 L57.71,7.855 L57.71,6.085 L51.89,6.085 L51.89,5.17 L55.715,5.17 L55.715,3.175 L52.535,3.175 L52.535,2.275 L55.715,2.275 L55.715,0.46 L56.69,0.46 L56.69,2.275 L59.975,2.275 L59.975,3.175 L56.69,3.175 L56.69,5.17 L60.635,5.17 L60.635,6.085 Z M67.07,1.9 L63.635,1.9 L63.635,3.25 L67.07,3.25 L67.07,1.9 Z M63.635,5.41 L67.07,5.41 L67.07,4 L63.635,4 L63.635,5.41 Z M68.015,6.19 L63.635,6.19 L63.635,14.14 L62.66,14.14 L62.66,1.12 L68.015,1.12 L68.015,6.19 Z M70.55,8.14 L66.86,8.14 L66.86,9.61 L70.55,9.61 L70.55,8.14 Z M66.86,11.935 L70.55,11.935 L70.55,10.39 L66.86,10.39 L66.86,11.935 Z M71.48,12.73 L66.86,12.73 L66.86,13.495 L65.945,13.495 L65.945,7.36 L71.48,7.36 L71.48,12.73 Z M70.37,5.425 L73.91,5.425 L73.91,4 L70.37,4 L70.37,5.425 Z M73.91,1.9 L70.37,1.9 L70.37,3.25 L73.91,3.25 L73.91,1.9 Z M74.9,1.12 L74.9,12.76 C74.9,13.435 74.735,13.765 74.27,13.945 C73.82,14.11 73.025,14.125 71.78,14.125 C71.75,13.855 71.585,13.375 71.435,13.105 C72.38,13.15 73.295,13.135 73.55,13.12 C73.82,13.105 73.91,13.03 73.91,12.76 L73.91,6.205 L69.41,6.205 L69.41,1.12 L74.9,1.12 Z" id="最大7時間" fill="#333333"></path>
                                    <path d="M16.775,103.665 L14,103.665 C13.31,103.665 12.86,103.695 12.545,103.74 L12.545,102.945 C12.86,102.99 13.34,103.02 14.06,103.02 L16.775,103.02 C16.76,102.435 16.745,102.075 16.67,101.61 L17.585,101.61 C17.51,102.075 17.48,102.45 17.48,103.02 L20.465,103.02 C21.185,103.02 21.695,102.99 22.01,102.945 L22.01,103.74 C21.665,103.695 21.2,103.665 20.48,103.665 L17.48,103.665 L17.48,104.97 L20,104.97 C20.495,104.97 20.78,104.955 21.155,104.91 C21.11,105.24 21.095,105.495 21.095,105.885 L21.095,108.855 C21.095,109.23 21.11,109.485 21.155,109.8 C20.81,109.755 20.435,109.74 19.985,109.74 L17.48,109.74 L17.48,111.105 L20.54,111.105 C21.275,111.105 21.74,111.075 22.055,111.03 L22.055,111.825 C21.71,111.765 21.26,111.75 20.525,111.75 L17.48,111.75 L17.48,112.125 C17.48,112.635 17.51,113.085 17.585,113.505 L16.67,113.505 C16.73,113.07 16.775,112.605 16.775,112.125 L16.775,111.75 L14.06,111.75 C13.385,111.75 12.89,111.78 12.56,111.825 L12.56,111.03 C12.89,111.09 13.325,111.105 14.06,111.105 L16.775,111.105 L16.775,109.74 L14.465,109.74 C14.015,109.74 13.685,109.755 13.325,109.8 C13.37,109.44 13.385,109.23 13.385,108.855 L13.385,105.87 C13.385,105.495 13.37,105.285 13.325,104.91 C13.685,104.955 13.985,104.97 14.465,104.97 L16.775,104.97 L16.775,103.665 Z M16.775,105.585 L14.09,105.585 L14.09,106.995 L16.775,106.995 L16.775,105.585 Z M17.48,105.585 L17.48,106.995 L20.375,106.995 L20.375,105.585 L17.48,105.585 Z M16.775,107.595 L14.09,107.595 L14.09,109.125 L16.775,109.125 L16.775,107.595 Z M17.48,107.595 L17.48,109.125 L20.375,109.125 L20.375,107.595 L17.48,107.595 Z M9.08,102.36 L9.635,101.895 C10.61,102.825 11.105,103.38 11.99,104.535 L11.36,105.06 C10.535,103.86 10.07,103.305 9.08,102.36 Z M8.84,108.405 L8.84,107.595 C9.2,107.655 9.41,107.67 9.98,107.67 L10.685,107.67 C11.135,107.67 11.435,107.655 11.825,107.595 C11.765,108.03 11.75,108.45 11.75,109.155 L11.75,112.02 C11.96,112.545 12.14,112.8 12.485,113.055 C13.4,113.715 14.315,113.925 16.355,113.925 C19.265,113.925 21.095,113.835 22.43,113.64 C22.235,114.06 22.19,114.165 22.1,114.555 C20.69,114.615 18.65,114.66 16.835,114.66 C14.435,114.66 13.475,114.495 12.56,113.925 C12.065,113.625 11.69,113.235 11.33,112.65 C10.64,113.355 10.31,113.655 9.515,114.27 C9.335,114.405 9.2,114.525 8.945,114.765 L8.51,113.955 C9.185,113.64 10.13,112.92 11,112.05 L11,108.33 L9.95,108.33 C9.44,108.33 9.2,108.345 8.84,108.405 Z M23.885,108.975 L23.735,108.15 C23.945,108.165 24.08,108.18 24.29,108.18 C24.425,108.18 24.515,108.18 24.86,108.165 C25.46,107.34 25.46,107.34 25.955,106.62 C25.295,105.735 24.755,105.135 23.765,104.22 L24.2,103.665 L24.965,104.43 C25.715,103.23 26.165,102.24 26.345,101.52 L27.11,101.91 C26.99,102.075 26.99,102.075 26.54,102.975 C26.225,103.59 25.925,104.1 25.4,104.895 C25.82,105.345 26.015,105.57 26.36,106.005 C27.29,104.535 27.62,103.935 27.8,103.29 L28.535,103.74 C28.37,103.98 28.37,103.98 27.77,104.985 C27.245,105.87 26.24,107.355 25.655,108.105 C26.96,108 27.185,107.985 27.935,107.865 C27.74,107.355 27.65,107.16 27.365,106.62 L27.89,106.35 C28.4,107.325 28.64,107.925 28.97,109.035 L28.37,109.32 C28.265,108.87 28.22,108.735 28.145,108.45 C27.71,108.525 27.62,108.54 26.93,108.63 L26.93,113.685 C26.93,114.255 26.96,114.69 27.02,115.14 L26.12,115.14 C26.18,114.72 26.21,114.225 26.21,113.685 L26.21,108.72 C25.475,108.795 25.19,108.825 24.875,108.855 C24.32,108.9 24.14,108.915 23.885,108.975 Z M32.435,103.785 L30.47,103.785 C29.84,103.785 29.42,103.815 28.985,103.875 L28.985,103.035 C29.39,103.095 29.825,103.125 30.47,103.125 L32.435,103.125 L32.435,102.75 C32.435,102.24 32.405,101.88 32.345,101.505 L33.245,101.505 C33.185,101.88 33.155,102.24 33.155,102.78 L33.155,103.125 L35.495,103.125 C36.155,103.125 36.575,103.095 36.98,103.035 L36.98,103.875 C36.575,103.815 36.125,103.785 35.51,103.785 L33.155,103.785 L33.155,105.495 L35.09,105.495 C35.735,105.495 36.17,105.465 36.56,105.405 L36.56,106.23 C36.155,106.17 35.705,106.14 35.09,106.14 L30.785,106.14 C30.17,106.14 29.75,106.17 29.315,106.23 L29.315,105.405 C29.705,105.465 30.14,105.495 30.785,105.495 L32.435,105.495 L32.435,103.785 Z M24.65,109.68 L25.355,109.83 C25.145,111.885 24.965,112.8 24.485,114.105 L23.81,113.745 C24.335,112.425 24.485,111.705 24.65,109.68 Z M27.575,109.8 L28.175,109.56 C28.55,110.7 28.7,111.285 28.94,112.62 L28.28,112.86 C28.1,111.555 27.965,110.925 27.575,109.8 Z M29.915,109.98 L29.135,109.98 C29.18,109.605 29.195,109.38 29.195,109.065 L29.195,108.315 C29.195,107.835 29.18,107.64 29.135,107.355 C29.42,107.385 29.855,107.4 30.575,107.4 L35.33,107.4 C36.065,107.4 36.515,107.385 36.95,107.325 C36.92,107.595 36.905,107.88 36.905,108.27 L36.905,109.125 C36.905,109.515 36.92,109.77 36.95,109.98 L36.155,109.98 L36.155,108.06 L29.915,108.06 L29.915,109.98 Z M33.455,108.96 L34.37,108.96 C34.295,109.35 34.28,109.695 34.28,110.265 L34.28,113.595 C34.28,113.925 34.445,113.985 35.255,113.985 C35.96,113.985 36.17,113.925 36.305,113.67 C36.455,113.4 36.545,112.755 36.605,111.645 C36.89,111.84 37.055,111.915 37.355,111.99 C37.235,113.22 37.115,113.79 36.89,114.15 C36.62,114.585 36.305,114.69 35.21,114.69 C33.845,114.69 33.545,114.525 33.545,113.715 L33.545,110.265 C33.545,109.695 33.515,109.35 33.455,108.96 Z M31.31,108.96 L32.195,108.96 C32.165,109.2 32.15,109.335 32.105,109.845 C32.015,111.255 31.745,112.2 31.22,113.025 C30.665,113.88 30.02,114.39 28.76,114.945 C28.625,114.69 28.49,114.525 28.205,114.315 C29.63,113.79 30.38,113.175 30.875,112.11 C31.175,111.435 31.37,110.49 31.37,109.59 C31.37,109.365 31.355,109.2 31.31,108.96 Z M40.4,110.28 L40.4,106.14 C40.4,105.585 40.385,105.18 40.34,104.745 C40.715,104.79 41.09,104.805 41.72,104.805 L44.99,104.805 L44.99,102.93 L40.49,102.93 C39.875,102.93 39.41,102.96 38.975,103.02 L38.975,102.135 C39.395,102.195 39.86,102.225 40.49,102.225 L50.69,102.225 C51.32,102.225 51.74,102.195 52.19,102.135 L52.19,103.02 C51.755,102.96 51.29,102.93 50.69,102.93 L45.74,102.93 L45.74,104.805 L49.385,104.805 C50.015,104.805 50.39,104.79 50.765,104.745 C50.72,105.15 50.705,105.525 50.705,106.095 L50.705,110.28 L50.84,110.28 C51.47,110.28 51.875,110.25 52.265,110.19 L52.265,111.06 C51.875,111 51.425,110.97 50.84,110.97 L50.705,110.97 L50.705,113.85 C50.705,114.795 50.375,114.99 48.8,114.99 C48.185,114.99 47.72,114.975 47.135,114.915 C47.105,114.555 47.06,114.39 46.955,114.09 C47.765,114.21 48.38,114.255 49.13,114.255 C49.775,114.255 49.925,114.165 49.925,113.745 L49.925,110.97 L41.195,110.97 L41.195,113.535 C41.195,114.24 41.225,114.69 41.285,115.095 L40.31,115.095 C40.37,114.615 40.4,114.195 40.4,113.535 L40.4,110.97 L40.13,110.97 C39.545,110.97 39.11,111 38.69,111.06 L38.69,110.19 C39.095,110.25 39.5,110.28 40.145,110.28 L40.4,110.28 Z M41.195,110.28 L44.99,110.28 L44.99,108.15 L41.195,108.15 L41.195,110.28 Z M41.195,107.49 L44.99,107.49 L44.99,105.48 L41.195,105.48 L41.195,107.49 Z M45.74,110.28 L49.925,110.28 L49.925,108.15 L45.74,108.15 L45.74,110.28 Z M45.74,107.49 L49.925,107.49 L49.925,105.48 L45.74,105.48 L45.74,107.49 Z M60.275,105.54 L56.615,105.54 C55.97,106.86 55.385,107.76 54.545,108.765 C54.26,108.525 54.14,108.45 53.795,108.3 C54.995,107.01 55.865,105.525 56.54,103.635 C56.765,103.005 56.84,102.66 56.87,102.21 L57.815,102.48 C57.725,102.66 57.635,102.9 57.515,103.275 C57.44,103.515 57.11,104.37 56.945,104.805 L60.275,104.805 L60.275,103.095 C60.275,102.555 60.245,102.06 60.17,101.565 L61.205,101.565 C61.13,102.06 61.1,102.54 61.1,103.095 L61.1,104.805 L64.94,104.805 C65.63,104.805 66.095,104.775 66.56,104.715 L66.56,105.63 C66.08,105.57 65.585,105.54 64.94,105.54 L61.1,105.54 L61.1,108.885 L64.25,108.885 C64.985,108.885 65.435,108.855 65.78,108.795 L65.78,109.695 C65.375,109.635 64.97,109.605 64.25,109.605 L61.1,109.605 L61.1,113.7 L65.435,113.7 C66.17,113.7 66.635,113.67 67.115,113.595 L67.115,114.54 C66.62,114.465 66.155,114.435 65.435,114.435 L55.685,114.435 C54.965,114.435 54.485,114.465 53.99,114.54 L53.99,113.595 C54.5,113.67 54.935,113.7 55.685,113.7 L60.275,113.7 L60.275,109.605 L57.425,109.605 C56.705,109.605 56.285,109.635 55.895,109.695 L55.895,108.795 C56.27,108.855 56.675,108.885 57.425,108.885 L60.275,108.885 L60.275,105.54 Z M81.425,113.265 L80.705,114.045 C79.49,112.515 77.81,110.895 75.845,109.365 C74.795,110.565 74.03,111.27 72.965,112.05 C71.945,112.815 71.135,113.31 70.01,113.88 C69.815,113.505 69.71,113.385 69.395,113.07 C70.55,112.605 71.285,112.185 72.44,111.33 C74.885,109.5 76.76,107.1 77.885,104.385 C77.915,104.325 77.945,104.235 78.005,104.115 C77.885,104.13 77.84,104.145 77.69,104.145 L72.515,104.22 C71.855,104.235 71.42,104.265 71,104.325 L70.985,103.305 C71.405,103.365 71.57,103.38 72.155,103.38 L72.53,103.38 L77.885,103.32 C78.35,103.305 78.53,103.29 78.755,103.215 L79.295,103.77 C79.16,103.92 79.055,104.1 78.89,104.475 C78.065,106.275 77.45,107.31 76.4,108.69 C78.425,110.25 79.82,111.525 81.425,113.265 Z M89.51,101.655 L90.5,101.97 C90.32,102.24 90.305,102.285 90.05,102.795 C89.81,103.305 89.63,103.62 89.465,103.86 C89.615,103.83 89.75,103.815 89.975,103.815 L94.28,103.77 C94.58,103.77 94.835,103.725 95.03,103.635 L95.615,104.22 C95.465,104.445 95.42,104.535 95.18,105.195 C94.16,107.955 92.825,110.13 91.235,111.63 C89.99,112.815 88.535,113.76 86.57,114.66 C86.375,114.3 86.27,114.165 85.955,113.895 C87.245,113.4 88.07,112.95 89.105,112.23 C90.32,111.375 91.01,110.745 91.745,109.77 C90.665,108.795 89.51,107.955 88.31,107.28 L88.88,106.665 C90.17,107.415 91.025,108.015 92.27,109.065 C93.2,107.67 93.92,106.155 94.475,104.505 L89.09,104.58 C88.055,106.215 86.99,107.4 85.505,108.555 C85.235,108.255 85.115,108.165 84.77,107.97 C86.375,106.83 87.635,105.435 88.61,103.695 C89.105,102.81 89.39,102.18 89.51,101.655 Z M101.81,103.23 L102.185,102.405 C104.585,102.735 106.955,103.275 109.595,104.07 L109.265,104.97 C107.405,104.265 104.225,103.53 101.81,103.23 Z M101.525,107.325 L101.9,106.5 C104.495,106.92 106.64,107.445 109.19,108.255 L108.86,109.14 C106.745,108.345 104.135,107.685 101.525,107.325 Z M100.355,111.525 L100.745,110.7 C104.78,111.42 107.15,112.05 110.225,113.25 L109.865,114.15 C108.5,113.49 107.3,113.1 104.84,112.47 C103.025,112.005 101.84,111.75 100.355,111.525 Z M121.4,105.99 L124.835,105.99 C125.66,105.99 126.005,105.975 126.53,105.9 L126.53,106.86 C126.035,106.815 125.585,106.8 124.85,106.8 L121.37,106.8 C121.265,108.855 120.965,110.055 120.26,111.195 C119.465,112.44 118.28,113.43 116.555,114.27 C116.36,113.895 116.255,113.76 115.94,113.49 C117.68,112.8 118.955,111.735 119.69,110.37 C120.185,109.425 120.35,108.645 120.47,106.8 L116.18,106.8 C115.445,106.8 114.995,106.815 114.5,106.86 L114.5,105.9 C115.025,105.975 115.37,105.99 116.195,105.99 L120.5,105.99 C120.515,105.63 120.515,105.435 120.515,104.64 L120.515,103.5 C120.515,102.93 120.5,102.615 120.44,102.27 L121.49,102.27 C121.43,102.66 121.43,102.66 121.415,103.485 L121.4,104.64 L121.4,105.99 Z M134.27,108.12 L131.105,108.12 C130.37,108.12 129.935,108.135 129.425,108.18 L129.425,107.25 C129.95,107.325 130.28,107.34 131.12,107.34 L134.27,107.34 L134.27,104.04 L131.96,104.04 C131.12,104.04 130.745,104.055 130.295,104.115 L130.295,103.155 C130.775,103.245 131.075,103.26 131.96,103.26 L138.875,103.26 C139.775,103.26 140.075,103.245 140.555,103.155 L140.555,104.115 C140.105,104.055 139.715,104.04 138.89,104.04 L135.155,104.04 L135.155,107.34 L139.82,107.34 C140.645,107.34 140.99,107.325 141.5,107.25 L141.5,108.18 C141.005,108.135 140.555,108.12 139.835,108.12 L135.155,108.12 L135.155,111.21 C135.155,112.305 135.26,112.575 135.725,112.77 C136.085,112.905 136.76,112.98 137.66,112.98 C138.11,112.98 138.92,112.935 139.805,112.86 C140.375,112.815 140.6,112.77 141.08,112.635 L141.08,113.61 L140.915,113.61 C140.765,113.61 140.69,113.61 139.805,113.685 C139.265,113.73 138.17,113.775 137.48,113.775 C134.915,113.775 134.27,113.31 134.27,111.51 L134.27,108.12 Z M154.865,107.4 L151.175,107.4 C151.16,107.805 151.115,108.315 151.04,108.855 C150.8,110.685 150.185,111.945 149.015,112.965 C148.355,113.52 147.635,113.925 146.36,114.45 C146.21,114.075 146.12,113.955 145.79,113.655 C147.8,112.995 149.06,111.99 149.66,110.565 C150.005,109.77 150.215,108.585 150.245,107.4 L146.075,107.4 C145.34,107.4 144.89,107.415 144.395,107.46 L144.395,106.53 C144.92,106.605 145.25,106.62 146.09,106.62 L154.85,106.62 C155.69,106.62 156.02,106.605 156.545,106.53 L156.545,107.46 C156.05,107.415 155.6,107.4 154.865,107.4 Z M145.91,103.8 L145.895,102.84 C146.375,102.915 146.69,102.945 147.575,102.945 L152.285,102.945 C153.17,102.945 153.485,102.915 153.95,102.84 L153.95,103.8 C153.515,103.74 153.125,103.725 152.285,103.725 L147.575,103.725 C146.735,103.725 146.345,103.74 145.91,103.8 Z M154.025,101.955 L154.64,101.61 C155.285,102.405 155.75,103.095 156.2,103.95 L155.54,104.34 C155.135,103.5 154.64,102.705 154.025,101.955 Z M155.645,101.19 L156.245,100.83 C156.86,101.595 157.295,102.24 157.76,103.11 L157.1,103.5 C156.65,102.585 156.245,101.925 155.645,101.19 Z M162.185,102.66 L163.22,102.72 C163.16,103.065 163.16,103.065 163.13,103.965 C163.025,107.94 162.89,109.095 162.32,110.595 C161.795,111.975 161.12,112.935 159.71,114.24 C159.485,113.94 159.365,113.835 158.975,113.595 C160.235,112.62 161.03,111.555 161.54,110.16 C162.035,108.84 162.245,106.875 162.245,103.725 C162.245,103.155 162.23,102.975 162.185,102.66 Z M165.86,102.54 L166.88,102.555 C166.805,102.885 166.79,103.155 166.79,103.845 L166.7,113.04 C167.975,112.605 168.8,112.11 169.61,111.3 C170.48,110.43 171.095,109.41 171.47,108.225 C171.725,108.57 171.815,108.675 172.16,108.96 C171.41,110.655 170.465,111.87 169.205,112.74 C168.545,113.19 167.93,113.505 167.045,113.835 C166.865,113.91 166.7,113.97 166.565,114.03 C166.4,114.09 166.355,114.105 166.235,114.18 L165.74,113.58 C165.815,113.37 165.815,113.295 165.83,112.71 L165.905,103.845 C165.905,102.9 165.905,102.9 165.86,102.54 Z" id="連続再生スタミナモデル" fill="#333333"></path>
                                    <path d="M189.75,45.25 C189.07291,45.25 188.48698,45.25 187.99219,45.25 C187.49739,45.25 187.25,45.25 187.25,45.25 L187.25,42.75 C187.25,41.39583 186.75521,40.22396 185.76562,39.23438 C184.77604,38.24479 183.60417,37.75 182.25,37.75 L132.25,37.75 C130.895827,37.75 129.723963,38.24479 128.734375,39.23438 C127.744787,40.22396 127.25,41.39583 127.25,42.75 L127.25,60.25 C127.25,61.604173 127.744787,62.776037 128.734375,63.765625 C129.723963,64.7552133 130.895827,65.25 132.25,65.25 L182.25,65.25 C183.60417,65.25 184.77604,64.7552133 185.76562,63.765625 C186.75521,62.776037 187.25,61.604173 187.25,60.25 L187.25,57.75 C187.25,57.75 187.49739,57.75 187.99219,57.75 C188.48698,57.75 189.07291,57.75 189.75,57.75 C190.42709,57.75 191.01302,57.502607 191.50781,57.007812 C192.00261,56.513018 192.25,55.927087 192.25,55.25 L192.25,47.75 C192.25,47.07291 192.00261,46.48698 191.50781,45.99219 C191.01302,45.49739 190.42709,45.25 189.75,45.25 Z M184.75,60.25 C184.75,60.927087 184.50261,61.513018 184.00781,62.007812 C183.51302,62.502607 182.92709,62.75 182.25,62.75 L132.25,62.75 C131.572913,62.75 130.986982,62.502607 130.492188,62.007812 C129.997393,61.513018 129.75,60.927087 129.75,60.25 L129.75,42.75 C129.75,42.07291 129.997393,41.48698 130.492188,40.99219 C130.986982,40.49739 131.572913,40.25 132.25,40.25 L182.25,40.25 C182.92709,40.25 183.51302,40.49739 184.00781,40.99219 C184.50261,41.48698 184.75,42.07291 184.75,42.75 L184.75,60.25 Z M132.25,60.25 L147.25,60.25 L147.25,42.75 L132.25,42.75 L132.25,60.25 Z M149.75,60.25 L164.75,60.25 L164.75,42.75 L149.75,42.75 L149.75,60.25 Z M167.25,60.25 L182.25,60.25 L182.25,42.75 L167.25,42.75 L167.25,60.25 Z" id="Fill-1" fill="#21BA45" transform="translate(159.750000, 51.500000) rotate(-90.000000) translate(-159.750000, -51.500000) "></path>
                                </g>
                            </g>
                        </g>
                    </g>
                </g>
            </g>
        </g>
    </g>
</svg>