<?xml version="1.0" encoding="UTF-8"?>
<svg width="137px" height="122px" viewBox="0 0 137 122" version="1.1" xmlns="http://www.w3.org/2000/svg" xmlns:xlink="http://www.w3.org/1999/xlink">
    <!-- Generator: Sketch 52 (66869) - http://www.bohemiancoding.com/sketch -->
    <title>graphic</title>
    <desc>Created with Sketch.</desc>
    <g id="webdesign-1920" stroke="none" stroke-width="1" fill="none" fill-rule="evenodd">
        <g id="Product-02" transform="translate(-1482.000000, -3669.000000)">
            <g id="wrapper">
                <g id="box" transform="translate(0.000000, 1200.000000)">
                    <g id="Function-feature-section" transform="translate(0.000000, 2330.000000)">
                        <g id="inner" transform="translate(272.000000, 120.000000)">
                            <g id="feature" transform="translate(700.000000, 0.000000)">
                                <g id="function-graphic/01-F2" transform="translate(495.000000, 0.000000)">
                                    <g id="graphic" transform="translate(5.000000, 19.000000)">
                                        <g id="Group-3" transform="translate(43.000000, 7.000000)">
                                            <path d="M39.7058813,33.0882375 C39.7058813,32.3529348 39.4485324,31.7279439 38.9338224,31.2132339 L33.1985307,25.4779422 C32.6838207,24.9632322 32.0588298,24.7058833 31.3235333,24.7058833 C30.5514683,24.7058833 29.8897088,24.9999945 29.3382364,25.5882354 C29.3933862,25.6433789 29.5680135,25.8134172 29.8621309,26.098344 C30.1562544,26.3832707 30.3538582,26.5808807 30.4549671,26.691174 C30.5560697,26.8014734 30.6939347,26.9761008 30.8685683,27.2150746 C31.0432018,27.4540423 31.1626856,27.6884146 31.2270259,27.9181979 C31.2913601,28.1479811 31.3235333,28.4007346 31.3235333,28.6764708 C31.3235333,29.4117673 31.0661783,30.0367644 30.5514744,30.5514683 C30.0367644,31.0661783 29.4117673,31.3235271 28.6764708,31.3235271 C28.4007346,31.3235271 28.1479811,31.2913601 27.9181979,31.2270198 C27.6884208,31.1626856 27.4540484,31.0432018 27.2150746,30.8685683 C26.9761008,30.6939347 26.8014734,30.5560636 26.6911802,30.4549609 C26.5808807,30.3538582 26.3832769,30.1562482 26.098344,29.8621309 C25.8134172,29.5680135 25.6433851,29.39338 25.5882354,29.3382364 C24.9816133,29.90809 24.6783116,30.57904 24.6783116,31.3511051 C24.6783116,32.0864016 24.9356604,32.7113925 25.4503704,33.2261025 L31.1305186,38.933823 C31.6268412,39.4301494 32.2518383,39.6783089 33.005516,39.6783089 C33.7408125,39.6783089 34.3658096,39.4393406 34.8805134,38.9613966 L38.9338224,34.9356631 C39.4485324,34.4209531 39.7058813,33.8051528 39.7058813,33.0882375 Z M20.3216946,13.6488949 C20.3216946,12.9135984 20.0643396,12.2886014 19.5496358,11.7738975 L13.8694876,6.06617759 C13.3547776,5.55146757 12.7297805,5.29411874 11.994484,5.29411874 C11.2775687,5.29411874 10.6525778,5.54227698 10.1194866,6.03859965 L6.06617697,10.0643369 C5.55146819,10.5790469 5.29411812,11.1948472 5.29411812,11.9117625 C5.29411812,12.647059 5.55146819,13.2720561 6.06617697,13.7867661 L11.8014693,19.5220578 C12.2977981,20.0183867 12.922789,20.2665449 13.6764729,20.2665449 C14.4485317,20.2665449 15.1102912,19.9816181 15.6617636,19.4117646 C15.60662,19.3566149 15.4319865,19.1865828 15.1378691,18.901656 C14.8437518,18.6167231 14.6461418,18.4191193 14.5450391,18.3088198 C14.4439364,18.1985266 14.3060653,18.0238992 14.1314317,17.7849254 C13.9567982,17.5459516 13.8373144,17.3115792 13.7729802,17.0818021 C13.7086399,16.8520189 13.6764729,16.5992654 13.6764729,16.3235292 C13.6764729,15.5882327 13.9338217,14.9632356 14.4485317,14.4485256 C14.9632356,13.9338217 15.5882327,13.6764667 16.3235292,13.6764667 C16.5992654,13.6764667 16.8520189,13.7086399 17.0818021,13.7729741 C17.3115854,13.8373144 17.5459577,13.9567982 17.7849254,14.1314317 C18.0238992,14.3060653 18.1985266,14.4439303 18.308826,14.5450329 C18.4191193,14.6461418 18.6167293,14.8437456 18.901656,15.1378691 C19.1865828,15.4319865 19.3566211,15.6066138 19.4117646,15.6617636 C20.0183867,15.09191 20.3216946,14.42096 20.3216946,13.6488949 Z M42.6838234,27.4632328 C44.2279535,29.0073629 45,30.8823418 45,33.0882375 C45,35.294127 44.2187567,37.1599215 42.6562517,38.6856642 L38.6029427,42.7113971 C37.0772,44.2371398 35.2114117,45 33.005516,45 C30.7812391,45 28.9062603,44.218758 27.3805175,42.6562498 L21.7003694,36.9485317 C20.1746267,35.422789 19.4117646,33.5569946 19.4117646,31.3511051 C19.4117646,29.0900597 20.2205796,27.1691278 21.8382344,25.5882354 L19.4117646,23.1617656 C17.8308722,24.7794204 15.9191309,25.5882354 13.6764729,25.5882354 C11.4705772,25.5882354 9.59559832,24.8161827 8.05146826,23.2720589 L2.31617656,17.536761 C0.772050824,15.9926371 0,14.1176582 0,11.9117625 C0,9.70587303 0.781242031,7.84007854 2.34375018,6.31433584 L6.39705731,2.28859862 C7.92280002,0.762855912 9.7885945,0 11.994484,0 C14.2187609,0 16.0937459,0.781243266 17.6194886,2.34374833 L23.2996306,8.05146826 C24.8253733,9.57721096 25.5882354,11.4430054 25.5882354,13.6488949 C25.5882354,15.9099342 24.7794204,17.8308722 23.1617656,19.4117646 L25.5882354,21.8382344 C27.1691278,20.2205796 29.0808753,19.4117646 31.3235333,19.4117646 C33.5294228,19.4117646 35.4044079,20.1838173 36.9485317,21.7279411 L42.6838234,27.4632328 Z" id="Fill-1" fill="#D2D2D2"></path>
                                            <path d="M84.4027505,20.4069767 C81.7151134,18.895344 78.766225,18.1395349 75.5559921,18.1395349 C72.3457593,18.1395349 69.3968709,18.9142381 66.7092338,20.4636592 C64.0215967,22.0130874 61.8939168,24.110453 60.3261297,26.755814 L62.9017682,29.5901163 C64.1709282,27.2470833 65.9253295,25.3575678 68.1650295,23.9215116 C70.4047295,22.4854554 72.9056807,21.7674419 75.6679764,21.7674419 C78.3556135,21.7674419 80.8379091,22.4665613 83.1149277,23.864822 C85.3919534,25.2630899 87.127699,27.1337113 88.3222004,29.4767442 L90.8978389,26.6424419 C89.2553932,23.9970809 87.0903876,21.9186095 84.4027505,20.4069767 Z M78.6915521,31.2906977 C77.7956706,30.3837137 76.7504935,29.9302326 75.5559921,29.9302326 C74.3614907,29.9302326 73.3163137,30.3837137 72.4204322,31.2906977 C71.5245508,32.1976788 71.0766208,33.2558079 71.0766208,34.4651163 C71.0766208,35.6744247 71.5245508,36.7325538 72.4204322,37.6395349 C73.3163137,38.5465162 74.3614907,39 75.5559921,39 C76.7504935,39 77.7956706,38.5465162 78.6915521,37.6395349 C79.5874335,36.7325538 80.0353635,35.6744247 80.0353635,34.4651163 C80.0353635,33.2558079 79.5874335,32.1976788 78.6915521,31.2906977 Z M104,12.3575581 C96.2357158,4.11914735 86.7544778,0 75.5559921,0 C64.3575065,0 54.8389356,4.15693563 47,12.4709302 L49.3516699,15.0784884 C56.5186999,7.44472633 65.2533879,3.62790698 75.5559921,3.62790698 C85.8585963,3.62790698 94.5559587,7.40693805 101.64833,14.9651163 L104,12.3575581 Z M97.6168959,19.5 C91.8683431,12.5464778 84.5147778,9.06976744 75.5559921,9.06976744 C66.5972065,9.06976744 59.2809741,12.5464778 53.6070727,19.5 L56.0707269,22.1075581 C58.3850783,19.235453 61.2406524,16.9491388 64.6375281,15.2485429 C68.0343967,13.5479542 71.6738536,12.6976744 75.5559921,12.6976744 C83.5442449,12.6976744 90.0392688,15.8342685 95.0412574,22.1075581 L97.6168959,19.5 Z" id="Fill-1" fill="#21BA45"></path>
                                        </g>
                                        <path d="M-16.47,40 L-16.47,29.02 L-13.29,29.02 C-11.055,29.02 -9.54,29.8 -9.54,31.705 C-9.54,32.8 -10.125,33.745 -11.175,34.09 L-11.175,34.15 C-9.825,34.405 -8.895,35.29 -8.895,36.79 C-8.895,38.935 -10.59,40 -13.05,40 L-16.47,40 Z M-15.225,33.73 L-13.545,33.73 C-11.565,33.73 -10.77,33.01 -10.77,31.855 C-10.77,30.505 -11.685,30.01 -13.47,30.01 L-15.225,30.01 L-15.225,33.73 Z M-15.225,39.01 L-13.245,39.01 C-11.295,39.01 -10.11,38.305 -10.11,36.745 C-10.11,35.335 -11.25,34.69 -13.245,34.69 L-15.225,34.69 L-15.225,39.01 Z M-5.475,40.195 C-6.405,40.195 -6.795,39.595 -6.795,38.515 L-6.795,28.06 L-5.58,28.06 L-5.58,38.605 C-5.58,39.01 -5.415,39.175 -5.205,39.175 C-5.13,39.175 -5.07,39.175 -4.92,39.145 L-4.74,40.09 C-4.935,40.15 -5.13,40.195 -5.475,40.195 Z M-0.27,40.195 C-1.965,40.195 -2.73,39.115 -2.73,37.045 L-2.73,31.9 L-1.515,31.9 L-1.515,36.895 C-1.515,38.455 -1.05,39.13 0.09,39.13 C0.945,39.13 1.56,38.695 2.37,37.705 L2.37,31.9 L3.585,31.9 L3.585,40 L2.58,40 L2.475,38.71 L2.43,38.71 C1.665,39.595 0.855,40.195 -0.27,40.195 Z M9.63,40.195 C7.5,40.195 5.79,38.62 5.79,35.965 C5.79,33.325 7.545,31.69 9.405,31.69 C11.43,31.69 12.6,33.145 12.6,35.485 C12.6,35.755 12.585,36.025 12.54,36.22 L7.005,36.22 C7.08,38.02 8.16,39.22 9.78,39.22 C10.575,39.22 11.235,38.965 11.835,38.56 L12.285,39.37 C11.58,39.82 10.755,40.195 9.63,40.195 Z M6.99,35.335 L11.52,35.335 C11.52,33.595 10.74,32.68 9.42,32.68 C8.22,32.68 7.155,33.655 6.99,35.335 Z M17.115,40.195 C15.42,40.195 14.88,39.145 14.88,37.555 L14.88,32.905 L13.65,32.905 L13.65,31.975 L14.925,31.9 L15.06,29.605 L16.095,29.605 L16.095,31.9 L18.33,31.9 L18.33,32.905 L16.095,32.905 L16.095,37.6 C16.095,38.59 16.395,39.19 17.37,39.19 C17.67,39.19 18.045,39.085 18.315,38.98 L18.555,39.895 C18.105,40.045 17.565,40.195 17.115,40.195 Z M23.28,40.195 C21.3,40.195 19.56,38.635 19.56,35.965 C19.56,33.25 21.3,31.69 23.28,31.69 C25.26,31.69 27.015,33.25 27.015,35.965 C27.015,38.635 25.26,40.195 23.28,40.195 Z M23.28,39.175 C24.735,39.175 25.755,37.885 25.755,35.965 C25.755,34.03 24.735,32.725 23.28,32.725 C21.825,32.725 20.82,34.03 20.82,35.965 C20.82,37.885 21.825,39.175 23.28,39.175 Z M32.31,40.195 C30.33,40.195 28.59,38.635 28.59,35.965 C28.59,33.25 30.33,31.69 32.31,31.69 C34.29,31.69 36.045,33.25 36.045,35.965 C36.045,38.635 34.29,40.195 32.31,40.195 Z M32.31,39.175 C33.765,39.175 34.785,37.885 34.785,35.965 C34.785,34.03 33.765,32.725 32.31,32.725 C30.855,32.725 29.85,34.03 29.85,35.965 C29.85,37.885 30.855,39.175 32.31,39.175 Z M40.71,40.195 C39.015,40.195 38.475,39.145 38.475,37.555 L38.475,32.905 L37.245,32.905 L37.245,31.975 L38.52,31.9 L38.655,29.605 L39.69,29.605 L39.69,31.9 L41.925,31.9 L41.925,32.905 L39.69,32.905 L39.69,37.6 C39.69,38.59 39.99,39.19 40.965,39.19 C41.265,39.19 41.64,39.085 41.91,38.98 L42.15,39.895 C41.7,40.045 41.16,40.195 40.71,40.195 Z M43.785,40 L43.785,28.06 L45,28.06 L45,31.375 L44.955,33.07 C45.735,32.32 46.56,31.69 47.67,31.69 C49.365,31.69 50.145,32.785 50.145,34.855 L50.145,40 L48.915,40 L48.915,35.005 C48.915,33.445 48.435,32.755 47.31,32.755 C46.455,32.755 45.84,33.205 45,34.075 L45,40 L43.785,40 Z" id="Bluetooth" fill="#333333" transform="translate(16.837500, 34.127500) rotate(90.000000) translate(-16.837500, -34.127500) "></path>
                                        <path d="M19.4599609,113.382812 L16.5961914,121 L15.9150391,121 L13.0439453,113.382812 L13.6518555,113.382812 L16.2446289,120.428711 L16.2666016,120.428711 L18.859375,113.382812 L19.4599609,113.382812 Z M23.3051758,113.785645 C21.7304688,113.785645 20.6391602,114.994141 20.5585938,116.810547 L25.9931641,116.810547 C25.9858398,115.008789 24.9091797,113.785645 23.3051758,113.785645 Z M25.9125977,118.868652 L26.4838867,118.868652 C26.2348633,120.157715 25.0629883,121.102539 23.3710938,121.102539 C21.3056641,121.102539 19.9726562,119.652344 19.9726562,117.19873 C19.9726562,114.833008 21.2983398,113.280273 23.3125,113.280273 C25.2827148,113.280273 26.5791016,114.752441 26.5791016,116.964355 L26.5791016,117.286621 L20.5512695,117.286621 L20.5512695,117.315918 C20.5512695,119.381348 21.6791992,120.597168 23.378418,120.597168 C24.7700195,120.597168 25.6855469,119.857422 25.9125977,118.868652 Z M27.8754883,121 L27.8754883,113.382812 L28.4101562,113.382812 L28.4101562,114.884277 L28.4248047,114.884277 C28.7324219,113.851562 29.4575195,113.280273 30.4682617,113.280273 C30.7685547,113.280273 31.0322266,113.346191 31.1787109,113.404785 L31.1787109,113.976074 C31.0175781,113.895508 30.746582,113.822266 30.3876953,113.822266 C29.1865234,113.822266 28.4467773,114.840332 28.4467773,116.268555 L28.4467773,121 L27.8754883,121 Z M33.2001953,121.073242 C32.9145508,121.073242 32.6875,120.846191 32.6875,120.560547 C32.6875,120.274902 32.9145508,120.047852 33.2001953,120.047852 C33.4858398,120.047852 33.7128906,120.274902 33.7128906,120.560547 C33.7128906,120.846191 33.4858398,121.073242 33.2001953,121.073242 Z" id="ver.5.0" fill="#333333"></path>
                                        <path d="M58.2587891,121.820312 C48.5322266,121.820312 40.7197266,115.648438 39.8603516,107.210938 L42.9462891,107.210938 C43.8056641,114.007812 50.3291016,119.046875 58.2978516,119.046875 C67.6337891,119.046875 74.5478516,112.25 74.5478516,103.070312 C74.5478516,93.96875 67.7119141,87.0546875 58.6884766,87.0546875 C52.4384766,87.0546875 46.9306641,90.1796875 43.8837891,95.375 L40.7587891,95.375 L44.1181641,64.6328125 L74.0009766,64.6328125 L74.0009766,67.4453125 L46.7744141,67.4453125 L44.1181641,91.546875 L44.2353516,91.546875 C47.2822266,87.09375 52.9462891,84.28125 59.0400391,84.28125 C69.6650391,84.28125 77.6337891,92.2890625 77.6337891,103.03125 C77.6337891,113.890625 69.4306641,121.820312 58.2587891,121.820312 Z" id="Path" fill="#21BA45"></path>
                                        <path d="M90.4462891,121.390625 C88.9228516,121.390625 87.7119141,120.179688 87.7119141,118.65625 C87.7119141,117.132812 88.9228516,115.921875 90.4462891,115.921875 C91.9697266,115.921875 93.1806641,117.132812 93.1806641,118.65625 C93.1806641,120.179688 91.9697266,121.390625 90.4462891,121.390625 Z" id="Path" fill="#21BA45"></path>
                                        <path d="M123.493164,121.820312 C111.110352,121.820312 103.493164,110.609375 103.493164,92.796875 C103.493164,75.0625 111.110352,63.8125 123.493164,63.8125 C135.836914,63.8125 143.415039,75.0234375 143.415039,92.796875 C143.415039,110.609375 135.836914,121.820312 123.493164,121.820312 Z M123.493164,119.046875 C133.922852,119.046875 140.329102,108.890625 140.329102,92.796875 C140.329102,76.78125 133.883789,66.5859375 123.493164,66.5859375 C113.063477,66.5859375 106.618164,76.8203125 106.618164,92.796875 C106.618164,108.890625 113.024414,119.046875 123.493164,119.046875 Z" id="Path-2" fill="#21BA45"></path>
                                    </g>
                                </g>
                            </g>
                        </g>
                    </g>
                </g>
            </g>
        </g>
    </g>
</svg>