<?xml version="1.0" encoding="UTF-8"?>
<svg width="200px" height="163px" viewBox="0 0 200 163" version="1.1" xmlns="http://www.w3.org/2000/svg" xmlns:xlink="http://www.w3.org/1999/xlink">
    <!-- Generator: Sketch 52 (66869) - http://www.bohemiancoding.com/sketch -->
    <title>include-items.svg</title>
    <desc>Created with Sketch.</desc>
    <defs>
        <polygon id="path-1" points="0 33.0514043 200 33.0514043 200 0 0 0"></polygon>
        <polygon id="path-3" points="0 47.2039506 105.74294 47.2039506 105.74294 0.000462711247 0 0.000462711247"></polygon>
        <polygon id="path-5" points="0 48.1573447 140.062448 48.1573447 140.062448 -0.000120889182 0 -0.000120889182"></polygon>
    </defs>
    <g id="Symbols" stroke="none" stroke-width="1" fill="none" fill-rule="evenodd">
        <g id="include-items/SP" transform="translate(-60.000000, -134.000000)">
            <g id="include-items">
                <g id="inner" transform="translate(0.000000, 31.000000)">
                    <g id="include-items.svg" transform="translate(60.000000, 103.000000)">
                        <g id="Group-34">
                            <path d="M83.6538462,29.4961256 L82.1849652,29.4961256 L81.818593,30.4995619 C81.9226246,30.4774556 82.0085638,30.4659218 82.1137261,30.4659218 C83.0443567,30.4659218 83.6334921,31.0118527 83.6334921,31.7538573 C83.6334921,32.5564141 82.9324096,33.0514043 82.0798028,33.0514043 C81.6218376,33.0514043 81.0835871,32.9014655 80.7692308,32.4391543 L81.0247867,32.3497678 C81.267904,32.6563733 81.6478455,32.8293796 82.0865875,32.8293796 C82.808024,32.8293796 83.3327051,32.3834079 83.3327051,31.758663 C83.3327051,31.1291125 82.828378,30.6889077 82.1001568,30.6889077 C81.8253777,30.6889077 81.6082683,30.750421 81.4182975,30.8503802 L81.9814251,29.2741009 L83.6538462,29.2741009 L83.6538462,29.4961256 Z" id="Fill-1" fill="#231916"></path>
                            <path d="M85.3734741,30.7745171 C85.3244284,30.5621294 85.226337,30.469638 85.124007,30.469638 C84.9629432,30.469638 84.8818059,30.7025793 84.8818059,30.9001227 C84.8818059,31.1650363 84.9944294,31.2506765 85.1343005,31.3568704 C85.2790157,31.4630642 85.4122263,31.5361438 85.5036572,31.7542408 C85.5629965,31.892407 85.5769231,32.0385663 85.5769231,32.1904349 C85.5769231,32.8070443 85.3316944,33.0514043 85.1100804,33.0514043 C84.8715123,33.0514043 84.6747239,32.7876325 84.6153846,32.3365941 L84.7522283,32.2578052 C84.801274,32.6140684 84.9526497,32.800193 85.1100804,32.800193 C85.2929423,32.800193 85.4297859,32.555833 85.4297859,32.2041373 C85.4297859,31.8992582 85.3280614,31.7873551 85.1100804,31.621784 C84.9665762,31.5098808 84.8606133,31.4230988 84.797641,31.264379 C84.7661548,31.1844481 84.7346687,31.0725449 84.7346687,30.9138251 C84.7346687,30.5027522 84.8993654,30.2184268 85.1167409,30.2184268 C85.2856762,30.2184268 85.4261529,30.364586 85.4927582,30.6557627 L85.3734741,30.7745171 Z" id="Fill-3" fill="#231916"></path>
                            <mask id="mask-2" fill="white">
                                <use xlink:href="#path-1"></use>
                            </mask>
                            <g id="Clip-6"></g>
                            <path d="M87.6072219,32.1070784 L87.8747002,32.1070784 L87.8747002,30.1183602 L87.6072219,30.1183602 L87.6072219,32.1070784 Z M87.5,29.4540526 C87.5,29.3472588 87.606069,29.2741009 87.7409611,29.2741009 C87.8747002,29.2741009 87.9807692,29.3472588 87.9807692,29.4540526 C87.9807692,29.5616872 87.8747002,29.6348452 87.7409611,29.6348452 C87.606069,29.6348452 87.5,29.5616872 87.5,29.4540526 Z" id="Fill-5" fill="#231916" mask="url(#mask-2)"></path>
                            <polygon id="Fill-7" fill="#231916" mask="url(#mask-2)" points="88.0967757 32.7867855 90.3702641 32.7867855 90.3702641 33.0514043 87.5 33.0514043 89.8153463 30.4818482 87.8611749 30.4818482 87.8611749 30.2184268 90.3846154 30.2184268"></polygon>
                            <path d="M92.961165,31.4105382 C92.8860581,30.8738597 92.4443275,30.4707799 91.8460181,30.4707799 C91.2337056,30.4707799 90.79834,30.8875621 90.7155951,31.4105382 L92.961165,31.4105382 Z M90.6939541,31.6617494 C90.6939541,32.3502966 91.2553466,32.8013349 91.8893,32.8013349 C92.3768586,32.8013349 92.7460282,32.5421306 92.9382511,32.1858674 L93.1903048,32.3171824 C93.012085,32.6220614 92.6136364,33.0514043 91.867659,33.0514043 C90.9294589,33.0514043 90.3846154,32.4302274 90.3846154,31.6423377 C90.3846154,30.7025793 91.1076787,30.2184268 91.8460181,30.2184268 C92.6581913,30.2184268 93.2692308,30.8019219 93.2692308,31.6617494 L90.6939541,31.6617494 Z" id="Fill-8" fill="#231916" mask="url(#mask-2)"></path>
                            <path d="M94.0268432,30.7745171 C93.9784335,30.5621294 93.8797986,30.469638 93.7781382,30.469638 C93.6165707,30.469638 93.5360895,30.7025793 93.5360895,30.9001227 C93.5360895,31.1650363 93.6486421,31.2506765 93.7884252,31.3568704 C93.9324442,31.4630642 94.065571,31.5361438 94.1569444,31.7542408 C94.2162463,31.892407 94.2307692,32.0385663 94.2307692,32.1904349 C94.2307692,32.8070443 93.9856949,33.0514043 93.7642204,33.0514043 C93.5258024,33.0514043 93.3291378,32.7876325 93.2692308,32.3365941 L93.4065934,32.2578052 C93.4556083,32.6140684 93.6062836,32.800193 93.7642204,32.800193 C93.946362,32.800193 94.0837246,32.555833 94.0837246,32.2041373 C94.0837246,31.8992582 93.9820642,31.7873551 93.7642204,31.621784 C93.6202014,31.5098808 93.5149102,31.4230988 93.4519775,31.264379 C93.4205112,31.1844481 93.3884398,31.0725449 93.3884398,30.9138251 C93.3884398,30.5027522 93.553638,30.2184268 93.7708767,30.2184268 C93.9391005,30.2184268 94.0800939,30.364586 94.1460522,30.6557627 L94.0268432,30.7745171 Z" id="Fill-9" fill="#231916" mask="url(#mask-2)"></path>
                            <path d="M97.7933428,31.6354865 C97.7933428,30.9800535 97.2935908,30.469638 96.6346154,30.469638 C95.9744778,30.469638 95.4758879,30.9800535 95.4758879,31.6354865 C95.4758879,32.2897775 95.9744778,32.8013349 96.6346154,32.8013349 C97.2935908,32.8013349 97.7933428,32.2897775 97.7933428,31.6354865 M98.0769231,31.6354865 C98.0769231,32.4359368 97.4493275,33.0514043 96.6346154,33.0514043 C95.8187411,33.0514043 95.1923077,32.4359368 95.1923077,31.6354865 C95.1923077,30.8338943 95.8187411,30.2184268 96.6346154,30.2184268 C97.4493275,30.2184268 98.0769231,30.8338943 98.0769231,31.6354865" id="Fill-10" fill="#231916" mask="url(#mask-2)"></path>
                            <path d="M98.5162315,30.2206244 L98.5162315,32.1070784 L98.3124559,32.1070784 L98.3124559,30.2206244 L98.0769231,30.2206244 L98.0769231,30.0272321 L98.3124559,30.0272321 L98.3124559,29.0382942 C98.3124559,28.4519639 98.6141496,28.3297751 98.859386,28.3297751 C98.9458363,28.3297751 99.0022936,28.3499934 99.0384615,28.360542 L99.0384615,28.5495391 C98.9872971,28.5284417 98.9414255,28.5231674 98.8796754,28.5231674 C98.7005999,28.5231674 98.5162315,28.5996453 98.5162315,29.0787307 L98.5162315,30.0272321 L99.0384615,30.0272321 L99.0384615,30.2206244 L98.5162315,30.2206244 Z" id="Fill-11" fill="#231916" mask="url(#mask-2)"></path>
                            <path d="M103.538088,31.4105382 C103.462981,30.8738597 103.021251,30.4707799 102.422941,30.4707799 C101.810629,30.4707799 101.375263,30.8875621 101.292518,31.4105382 L103.538088,31.4105382 Z M101.270877,31.6617494 C101.270877,32.3502966 101.83227,32.8013349 102.466223,32.8013349 C102.953782,32.8013349 103.322951,32.5421306 103.515174,32.1858674 L103.767228,32.3171824 C103.589008,32.6220614 103.190559,33.0514043 102.444582,33.0514043 C101.506382,33.0514043 100.961538,32.4302274 100.961538,31.6423377 C100.961538,30.7025793 101.684602,30.2184268 102.422941,30.2184268 C103.235114,30.2184268 103.846154,30.8019219 103.846154,31.6617494 L101.270877,31.6617494 Z" id="Fill-12" fill="#231916" mask="url(#mask-2)"></path>
                            <path d="M103.188457,31.6086631 C103.188457,32.2170342 103.602331,32.8002943 104.348805,32.8002943 C105.087776,32.8002943 105.494148,32.2307311 105.494148,31.6086631 C105.494148,30.8073939 104.847704,30.4706782 104.341302,30.4706782 C103.753626,30.4706782 103.188457,30.8735956 103.188457,31.6086631 Z M105.479144,30.2789214 L105.769231,30.2789214 L105.769231,32.9783541 L105.479144,32.9783541 L105.479144,32.495538 C105.182805,32.9132938 104.711413,33.0514043 104.326298,33.0514043 C103.551065,33.0514043 102.884615,32.514942 102.884615,31.6292085 C102.884615,30.7948384 103.463539,30.2184268 104.326298,30.2184268 C104.790187,30.2184268 105.196559,30.3839311 105.479144,30.7480406 L105.479144,30.2789214 Z" id="Fill-13" fill="#231916" mask="url(#mask-2)"></path>
                            <path d="M107.692308,29.3361968 L107.91398,29.3361968 L107.91398,29.6958842 C107.997467,29.4580453 108.170198,29.2741009 108.415861,29.2741009 C108.475357,29.2741009 108.571319,29.2881604 108.653846,29.3420549 L108.54349,29.5869235 C108.520459,29.5658343 108.475357,29.533029 108.376516,29.533029 C107.919737,29.533029 107.91398,30.2734929 107.91398,30.6202925 L107.91398,32.1070784 L107.692308,32.1070784 L107.692308,29.3361968 Z" id="Fill-14" fill="#231916" mask="url(#mask-2)"></path>
                            <path d="M111.234489,30.5003151 C111.234489,29.8469382 110.697845,29.4965913 110.088648,29.4965913 C109.508223,29.4965913 108.927797,29.8288168 108.927797,30.4882341 C108.927797,31.0842266 109.334345,31.5513558 110.081143,31.5513558 C110.829191,31.5513558 111.234489,31.0842266 111.234489,30.5003151 Z M108.942808,33.0514043 L108.653846,33.0514043 L108.653846,29.3274584 L108.942808,29.3274584 L108.942808,29.7412301 C109.225515,29.431153 109.632064,29.2741009 110.103659,29.2741009 C110.996814,29.2741009 111.538462,29.8106955 111.538462,30.5003151 C111.538462,31.2000021 110.989309,31.7728394 110.088648,31.7728394 C109.356862,31.7728394 109.029121,31.3993374 108.942808,31.2825551 L108.942808,33.0514043 Z" id="Fill-15" fill="#231916" mask="url(#mask-2)"></path>
                            <path d="M111.645683,32.1070784 L111.913162,32.1070784 L111.913162,30.1183602 L111.645683,30.1183602 L111.645683,32.1070784 Z M111.538462,29.4540526 C111.538462,29.3472588 111.645683,29.2741009 111.779423,29.2741009 C111.913162,29.2741009 112.019231,29.3472588 112.019231,29.4540526 C112.019231,29.5616872 111.913162,29.6348452 111.779423,29.6348452 C111.645683,29.6348452 111.538462,29.5616872 111.538462,29.4540526 Z" id="Fill-16" fill="#231916" mask="url(#mask-2)"></path>
                            <path d="M115.075277,31.4105382 C115.00017,30.8738597 114.558439,30.4707799 113.96013,30.4707799 C113.347817,30.4707799 112.912452,30.8875621 112.83098,31.4105382 L115.075277,31.4105382 Z M112.809339,31.6617494 C112.809339,32.3502966 113.369458,32.8013349 114.004685,32.8013349 C114.492243,32.8013349 114.861413,32.5421306 115.052363,32.1858674 L115.304416,32.3171824 C115.12747,32.6220614 114.729021,33.0514043 113.983044,33.0514043 C113.044844,33.0514043 112.5,32.4302274 112.5,31.6423377 C112.5,30.7025793 113.223063,30.2184268 113.96013,30.2184268 C114.772303,30.2184268 115.384615,30.8019219 115.384615,31.6617494 L112.809339,31.6617494 Z" id="Fill-17" fill="#231916" mask="url(#mask-2)"></path>
                            <path d="M116.332722,30.9138251 C116.260468,30.7071468 116.133559,30.469638 115.954313,30.469638 C115.685675,30.469638 115.497629,30.9800535 115.497629,31.6423377 C115.497629,32.4153831 115.736624,32.800193 115.948755,32.800193 C116.12337,32.800193 116.260468,32.5489818 116.346154,32.3171824 L116.346154,32.6745874 C116.2739,32.8333073 116.139117,33.0514043 115.945976,33.0514043 C115.615737,33.0514043 115.384615,32.4496392 115.384615,31.6491889 C115.384615,30.8464548 115.602305,30.2184268 115.954313,30.2184268 C116.032125,30.2184268 116.182655,30.251541 116.332722,30.5621294 L116.332722,30.9138251 Z" id="Fill-18" fill="#231916" mask="url(#mask-2)"></path>
                            <path d="M119.882969,31.4105382 C119.807862,30.8738597 119.366131,30.4707799 118.767822,30.4707799 C118.15551,30.4707799 117.720144,30.8875621 117.638672,31.4105382 L119.882969,31.4105382 Z M117.617031,31.6617494 C117.617031,32.3502966 118.177151,32.8013349 118.812377,32.8013349 C119.299936,32.8013349 119.669105,32.5421306 119.860055,32.1858674 L120.112109,32.3171824 C119.935162,32.6220614 119.536713,33.0514043 118.790736,33.0514043 C117.852536,33.0514043 117.307692,32.4302274 117.307692,31.6423377 C117.307692,30.7025793 118.030756,30.2184268 118.767822,30.2184268 C119.579995,30.2184268 120.192308,30.8019219 120.192308,31.6617494 L117.617031,31.6617494 Z" id="Fill-19" fill="#231916" mask="url(#mask-2)"></path>
                            <polygon id="Fill-20" fill="#231916" mask="url(#mask-2)" points="13.6454787 21.7194942 13.6454787 25.2701789 14.4230769 25.2701789 14.4230769 25.4967976 13.4615385 25.4967976 13.4615385 21.7194942"></polygon>
                            <polygon id="Fill-21" fill="#231916" mask="url(#mask-2)" points="16.5300941 21.7194942 16.5300941 25.2701789 17.3076923 25.2701789 17.3076923 25.4967976 16.3461538 25.4967976 16.3461538 21.7194942"></polygon>
                            <path d="M24.9476867,18.8865167 C25.7921608,18.8865167 26.0784394,18.2124483 26.6845076,17.0884008 C27.2915332,15.9643534 28.3820729,13.1114868 27.6285569,9.322664 C26.8759983,5.53294124 24.2621499,3.13365345 22.7847989,1.63252365 C21.307448,0.131393855 20.5424425,0 19.6682873,0 L9.17746779,0 C8.30331262,0 7.53830716,0.131393855 6.06095619,1.63252365 C4.58360523,3.13365345 1.96975679,5.53294124 1.21719823,9.322664 C0.464639666,13.1114868 1.55422191,15.9643534 2.16124752,17.0884008 C2.76827312,18.2124483 3.05455176,18.8865167 3.89902587,18.8865167 L24.9476867,18.8865167 Z" id="Stroke-22" stroke="#231916" stroke-width="0.567" stroke-linecap="round" stroke-linejoin="round" mask="url(#mask-2)"></path>
                            <polygon id="Fill-23" fill="#231916" mask="url(#mask-2)" points="61.7216804 21.7194942 61.7216804 25.2701789 62.5 25.2701789 62.5 25.4967976 61.5384615 25.4967976 61.5384615 21.7194942"></polygon>
                            <path d="M64.9257574,0 C65.6858693,0 67.0242257,0.151702622 68.0520089,1.14190701 C69.4696408,2.50998884 71.273391,4.50143053 72.529674,8.42822991 C73.785957,12.3550293 72.529674,15.6419194 72.2116395,16.4813406 C71.8917396,17.3207618 71.359195,18.8865167 70.8965993,18.8865167 L50.2569974,18.8865167 C49.7944018,18.8865167 49.2627898,17.3207618 48.9428899,16.4813406 C48.6229901,15.6419194 47.3685724,12.3550293 48.6239228,8.42822991 C49.8802058,4.50143053 51.6848886,2.50998884 53.1025205,1.14190701 C54.1303037,0.151702622 55.4677275,0 56.228772,0 L64.9257574,0 Z" id="Stroke-24" stroke="#231916" stroke-width="0.567" stroke-linecap="round" stroke-linejoin="round" mask="url(#mask-2)"></path>
                            <path d="M103.846154,25.3699751 L104.246038,21.7194942 L105.769231,24.9840332 L107.292424,21.7194942 L107.692308,25.3699751 L107.461466,25.3699751 L107.149738,22.5351728 C107.149738,22.5351728 105.774684,25.4967976 105.769231,25.4967976 L104.388723,22.5351728 L104.077905,25.3699751 L103.846154,25.3699751 Z" id="Fill-25" fill="#231916" mask="url(#mask-2)"></path>
                            <path d="M109.71609,0.944325836 C110.526031,0.944325836 111.584093,1.32608955 112.509232,2.4676287 C113.664771,3.89525614 115.035644,5.95790577 115.818113,9.04953522 C116.599697,12.1411647 116.426012,15.1643206 115.865079,16.8348885 C115.305919,18.5054565 114.909811,19.8308426 114.273555,19.8308426 L96.3033368,19.8308426 C95.6670817,19.8308426 95.270973,18.5054565 94.7109267,16.8348885 C94.1508805,15.1643206 93.9771952,12.1411647 94.7596649,9.04953522 C95.5412485,5.95790577 96.9121212,3.89525614 98.0676597,2.4676287 C98.9919133,1.32608955 100.051748,0.944325836 100.860802,0.944325836 L109.71609,0.944325836 Z" id="Stroke-26" stroke="#231916" stroke-width="0.567" stroke-linecap="round" stroke-linejoin="round" mask="url(#mask-2)"></path>
                            <path d="M147.60779,22.3909305 C147.316267,21.9508932 146.805488,21.9395129 146.676874,21.9395129 C146.115875,21.9395129 145.796178,22.2524705 145.796178,22.6213811 C145.796178,23.0177941 146.151396,23.1496156 146.626654,23.3307517 C147.095786,23.507146 147.32974,23.5839628 147.572268,23.7157844 C147.77805,23.8257937 148.076923,24.01831 148.076923,24.4261033 C148.076923,25.0406382 147.408133,25.4967976 146.599706,25.4967976 C145.988486,25.4967976 145.676139,25.2720371 145.497305,25.1127133 C145.313572,24.9476993 145.235179,24.8044974 145.192308,24.7106102 L145.463008,24.6119811 C145.526703,24.7551829 145.646742,24.8983847 145.717785,24.9638213 C145.930916,25.1734081 146.278785,25.2777273 146.60583,25.2777273 C147.245223,25.2777273 147.748653,24.9145068 147.748653,24.4298967 C147.748653,24.2326386 147.649437,24.0240002 147.286869,23.853296 C147.153356,23.7935496 146.875306,23.6825919 146.485791,23.5346483 C146.016659,23.3592024 145.782705,23.2596249 145.618569,23.0500382 C145.512004,22.9134749 145.469133,22.7750149 145.469133,22.6327614 C145.469133,22.2097945 145.839049,21.7194942 146.684223,21.7194942 C147.160706,21.7194942 147.593092,21.8958885 147.83562,22.2420386 L147.60779,22.3909305 Z" id="Fill-27" fill="#231916" mask="url(#mask-2)"></path>
                            <path d="M155.530207,18.8865167 C156.318162,18.8865167 156.603457,18.0257672 157.138723,16.6859618 C157.674895,15.3461565 158.025399,12.2805439 157.205745,9.35192758 C156.385184,6.42244962 155.536547,4.89739786 154.35733,3.3878551 C153.317591,2.05666585 151.94365,1.88865167 151.508011,1.88865167 L142.722759,1.88865167 C142.287119,1.88865167 140.913178,2.05666585 139.873439,3.3878551 C138.694223,4.89739786 137.845585,6.42244962 137.025025,9.35192758 C136.20537,12.2805439 136.555874,15.3461565 137.092046,16.6859618 C137.627313,18.0257672 137.912607,18.8865167 138.700562,18.8865167 L155.530207,18.8865167 Z" id="Stroke-28" stroke="#231916" stroke-width="0.567" stroke-linecap="round" stroke-linejoin="round" mask="url(#mask-2)"></path>
                            <path d="M187.992406,22.3909305 C187.702107,21.9508932 187.190103,21.9395129 187.061489,21.9395129 C186.50049,21.9395129 186.180794,22.2524705 186.180794,22.6213811 C186.180794,23.0177941 186.537237,23.1496156 187.012494,23.3307517 C187.481627,23.507146 187.715581,23.5839628 187.956884,23.7157844 C188.16389,23.8257937 188.461538,24.01831 188.461538,24.4261033 C188.461538,25.0406382 187.792749,25.4967976 186.984321,25.4967976 C186.373101,25.4967976 186.060755,25.2720371 185.883146,25.1127133 C185.698187,24.9476993 185.619794,24.8044974 185.576923,24.7106102 L185.847624,24.6119811 C185.911318,24.7551829 186.031357,24.8983847 186.103626,24.9638213 C186.316756,25.1734081 186.6634,25.2777273 186.991671,25.2777273 C187.629838,25.2777273 188.134493,24.9145068 188.134493,24.4298967 C188.134493,24.2326386 188.034052,24.0240002 187.672709,23.853296 C187.537972,23.7935496 187.261146,23.6825919 186.870407,23.5346483 C186.401274,23.3592024 186.16732,23.2596249 186.003185,23.0500382 C185.897844,22.9134749 185.854973,22.7750149 185.854973,22.6327614 C185.854973,22.2097945 186.223665,21.7194942 187.068839,21.7194942 C187.545321,21.7194942 187.977707,21.8958885 188.220235,22.2420386 L187.992406,22.3909305 Z" id="Fill-29" fill="#231916" mask="url(#mask-2)"></path>
                            <path d="M189.915283,22.3909305 C189.624861,21.9508932 189.113865,21.9395129 188.983972,21.9395129 C188.423959,21.9395129 188.102902,22.2524705 188.102902,22.6213811 C188.102902,23.0177941 188.459496,23.1496156 188.934955,23.3307517 C189.404287,23.507146 189.638341,23.5839628 189.879746,23.7157844 C190.086841,23.8257937 190.384615,24.01831 190.384615,24.4261033 C190.384615,25.0406382 189.716767,25.4967976 188.906771,25.4967976 C188.295291,25.4967976 187.984037,25.2720371 187.805127,25.1127133 C187.62009,24.9476993 187.541664,24.8044974 187.5,24.7106102 L187.76959,24.6119811 C187.833312,24.7551829 187.954627,24.8983847 188.025701,24.9638213 C188.238922,25.1734081 188.586939,25.2777273 188.914123,25.2777273 C189.553787,25.2777273 190.057431,24.9145068 190.057431,24.4298967 C190.057431,24.2326386 189.958173,24.0240002 189.595451,23.853296 C189.460656,23.7935496 189.183713,23.6825919 188.792808,23.5346483 C188.323476,23.3592024 188.089422,23.2596249 187.926443,23.0500382 C187.819832,22.9134749 187.776943,22.7750149 187.776943,22.6327614 C187.776943,22.2097945 188.147017,21.7194942 188.991324,21.7194942 C189.468009,21.7194942 189.900578,21.8958885 190.14321,22.2420386 L189.915283,22.3909305 Z" id="Fill-30" fill="#231916" mask="url(#mask-2)"></path>
                            <path d="M123.076923,31.1627526 L200,31.1627526" id="Stroke-31" stroke="#231916" stroke-width="0.283" mask="url(#mask-2)"></path>
                            <path d="M0,31.1627526 L76.9230769,31.1627526" id="Stroke-32" stroke="#231916" stroke-width="0.283" mask="url(#mask-2)"></path>
                            <path d="M192.990658,1.88957787 C193.716343,1.88957787 195.018639,1.81110714 195.93559,3.09874051 C196.851604,4.38637388 198.221405,7.38342081 198.753012,10.1762655 C199.283681,12.9691102 198.992094,15.4284542 198.546744,16.7330302 C198.100457,18.0384978 197.820122,18.8865167 197.175068,18.8865167 L180.709326,18.8865167 C180.064273,18.8865167 179.783937,18.0384978 179.33765,16.7330302 C178.8923,15.4284542 178.600714,12.9691102 179.13232,10.1762655 C179.662989,7.38342081 181.032791,4.38637388 181.949742,3.09874051 C182.864818,1.81110714 184.168051,1.88957787 184.893736,1.88957787 L192.990658,1.88957787 Z" id="Stroke-33" stroke="#231916" stroke-width="0.567" stroke-linecap="round" stroke-linejoin="round" mask="url(#mask-2)"></path>
                        </g>
                        <g id="Group-3" transform="translate(30.000000, 49.000000)">
                            <g id="Group-58" transform="translate(18.000000, 66.000000)">
                                <path d="M79.4816783,41.1870849 L79.4816783,43.9841744 C79.4816783,44.4063984 79.502791,44.6817116 79.6728655,44.9500841 C79.9379471,45.3723082 80.4340955,45.4660072 80.7273274,45.4660072 C81.0193864,45.4660072 81.5155347,45.3723082 81.7806164,44.9500841 C81.9506909,44.6817116 81.9706306,44.4063984 81.9706306,43.9841744 L81.9706306,41.1870849 L82.2709001,41.1870849 L82.2709001,43.9841744 C82.2709001,44.4734916 82.2427498,44.7950759 82.0116831,45.1305415 C81.6715341,45.6198587 81.1343333,45.7343797 80.7273274,45.7343797 C80.3191486,45.7343797 79.7819478,45.6198587 79.4417988,45.1305415 C79.210732,44.7950759 79.1825818,44.4734916 79.1825818,43.9841744 L79.1825818,41.1870849 L79.4816783,41.1870849 Z" id="Fill-1" fill="#231916"></path>
                                <path d="M85.5342192,41.9451216 C85.2562354,41.4083766 84.7659516,41.3944952 84.6427942,41.3944952 C84.1055934,41.3944952 83.7994593,41.776232 83.7994593,42.2262187 C83.7994593,42.709752 84.1407812,42.8705441 84.5958771,43.0914887 C85.0451084,43.3066495 85.2691376,43.4003485 85.5002043,43.5611407 C85.6984291,43.6953269 85.9834505,43.9301529 85.9834505,44.4275675 C85.9834505,45.1771597 85.3442049,45.73357 84.5688998,45.73357 C83.9836089,45.73357 83.6845124,45.4594135 83.5144379,45.2650748 C83.3373258,45.0637954 83.2622585,44.8891219 83.221206,44.7746009 L83.480423,44.654296 C83.5414152,44.8289695 83.6563621,45.003643 83.7255649,45.0834607 C83.9296543,45.3391086 84.2627657,45.4663542 84.5759374,45.4663542 C85.1870326,45.4663542 85.6702788,45.0233082 85.6702788,44.4321946 C85.6702788,44.1915847 85.5752717,43.9370935 85.2280851,43.7288735 C85.0990631,43.6559965 84.8339814,43.5206534 84.4598175,43.340196 C84.0105863,43.1261921 83.7865571,43.0047304 83.6305577,42.7490824 C83.528513,42.5825064 83.4874606,42.4136168 83.4874606,42.2401 C83.4874606,41.724177 83.8416847,41.1261227 84.6498318,41.1261227 C85.1061006,41.1261227 85.5201441,41.3412834 85.7523837,41.7635075 L85.5342192,41.9451216 Z" id="Fill-3" fill="#231916"></path>
                                <path d="M87.3085068,45.3916263 L88.0697368,45.3916263 C88.3770438,45.3916263 88.7500348,45.3916263 89.0561689,45.1244106 C89.3013107,44.9092499 89.3494008,44.6466612 89.3494008,44.439598 C89.3494008,44.0370392 89.2063036,43.7628828 88.8661546,43.6078745 C88.7441701,43.5546627 88.518968,43.4806289 88.016955,43.4806289 L87.3085068,43.4806289 L87.3085068,45.3916263 Z M87.3085068,43.2122564 L88.0298572,43.2122564 C88.260924,43.2122564 88.4521112,43.1856505 88.649163,43.0248583 C88.8321397,42.8767907 88.9470866,42.6489054 88.9470866,42.3400457 C88.9470866,41.9849148 88.7922602,41.7628134 88.6421254,41.6425085 C88.4169233,41.467835 88.1248644,41.4551104 87.8867601,41.4551104 L87.3085068,41.4551104 L87.3085068,43.2122564 Z M87.0094102,41.1867379 L88.0028799,41.1867379 C88.7922602,41.1867379 89.2532207,41.6367246 89.2532207,42.3064991 C89.2532207,42.7900324 89.0233269,43.104676 88.7230574,43.2862902 C89.3153859,43.3799892 89.6625724,43.8288191 89.6625724,44.4060514 C89.6625724,45.190347 89.0772816,45.6599989 88.2550593,45.6599989 L87.0094102,45.6599989 L87.0094102,41.1867379 Z" id="Fill-5" fill="#231916"></path>
                                <path d="M94.0562419,43.5684284 C93.8732652,43.3590515 93.5530559,43.1184417 93.09796,43.1184417 C92.417662,43.1184417 91.9414534,43.6355215 91.9414534,44.3064528 C91.9414534,45.0895916 92.5466841,45.4794258 93.0838849,45.4794258 C93.5260786,45.4794258 93.8732652,45.2249346 94.0902568,44.9901087 L94.0902568,45.3521802 C93.9072801,45.5129724 93.5671311,45.733917 93.0768473,45.733917 C92.24055,45.733917 91.6552591,45.1242949 91.6552591,44.3133935 C91.6552591,43.5001784 92.2065351,42.8639505 93.09796,42.8639505 C93.2950119,42.8639505 93.6762133,42.897497 94.0562419,43.2121407 L94.0562419,43.5684284 Z" id="Fill-7" fill="#231916"></path>
                                <path d="M94.9691314,44.2722122 C94.9691314,44.8887749 95.3561975,45.4798885 96.0576082,45.4798885 C96.7508084,45.4798885 97.1320099,44.9026562 97.1320099,44.2722122 C97.1320099,43.4601539 96.5256063,43.1189044 96.0505706,43.1189044 C95.4992947,43.1189044 94.9691314,43.5272471 94.9691314,44.2722122 Z M97.1179347,42.9245657 L97.388881,42.9245657 L97.388881,45.6603459 L97.1179347,45.6603459 L97.1179347,45.1710288 C96.8399509,45.5944096 96.3977572,45.7343797 96.0364955,45.7343797 C95.3092804,45.7343797 94.6829371,45.190694 94.6829371,44.2930342 C94.6829371,43.4474294 95.2271755,42.8632564 96.0364955,42.8632564 C96.4716516,42.8632564 96.8516802,43.0309892 97.1179347,43.4000015 L97.1179347,42.9245657 Z" id="Fill-9" fill="#231916"></path>
                                <path d="M100.823448,44.2722122 C100.823448,43.5214632 100.320262,43.1189044 99.7490459,43.1189044 C99.2048075,43.1189044 98.6605691,43.5006412 98.6605691,44.2583308 C98.6605691,44.9431435 99.0405976,45.4798885 99.7420083,45.4798885 C100.442246,45.4798885 100.823448,44.9431435 100.823448,44.2722122 Z M98.6746442,40.7718016 L98.6746442,43.4000015 C98.9397258,43.0437138 99.3209273,42.8632564 99.763121,42.8632564 C100.599418,42.8632564 101.108469,43.4798191 101.108469,44.2722122 C101.108469,45.076173 100.592381,45.7343797 99.7490459,45.7343797 C99.0617103,45.7343797 98.7555762,45.305215 98.6746442,45.1710288 L98.6746442,45.6603459 L98.402525,45.6603459 L98.402525,40.7718016 L98.6746442,40.7718016 Z" id="Fill-11" fill="#231916"></path>
                                <mask id="mask-4" fill="white">
                                    <use xlink:href="#path-3"></use>
                                </mask>
                                <g id="Clip-14"></g>
                                <polygon id="Fill-13" fill="#231916" mask="url(#mask-4)" points="101.961422 45.6608086 102.310697 45.6608086 102.310697 40.7711075 101.961422 40.7711075"></polygon>
                                <path d="M105.457919,44.0710484 C105.388716,43.5273627 104.98171,43.1190201 104.430434,43.1190201 C103.866256,43.1190201 103.465115,43.5412441 103.390048,44.0710484 L105.457919,44.0710484 Z M103.370108,44.3255396 C103.370108,45.0230768 103.886196,45.4800042 104.471487,45.4800042 C104.919545,45.4800042 105.259694,45.2174156 105.436806,44.8565008 L105.669046,44.9895303 C105.504836,45.29839 105.13771,45.7333386 104.451547,45.7333386 C103.5871,45.7333386 103.083914,45.1040513 103.083914,44.3058744 C103.083914,43.353846 103.750136,42.8633721 104.430434,42.8633721 C105.178762,42.8633721 105.74294,43.4544857 105.74294,44.3255396 L103.370108,44.3255396 Z" id="Fill-15" fill="#231916" mask="url(#mask-4)"></path>
                                <polygon id="Stroke-16" stroke="#231916" stroke-width="0.567" mask="url(#mask-4)" points="89.8474258 32.8552748 92.6472039 32.8552748 92.6472039 29.0113012 89.8474258 29.0113012"></polygon>
                                <path d="M92.2533349,18.6016862 C92.3237105,18.6016862 92.4503867,18.6849742 92.4503867,18.837669 L92.4503867,22.2663593 C92.4503867,22.3704693 92.5137248,22.5509267 92.5559502,22.6064521 C92.5981756,22.6619774 92.8714677,23.0506549 92.9570914,23.1605488 C93.0415422,23.2727563 93.1177825,23.4323916 93.1177825,23.529561 L93.1177825,28.8033124 C93.1177825,28.9351852 93.012219,29.0115325 92.9078285,29.0115325 L89.5884434,29.0115325 C89.481707,29.0115325 89.3761435,28.9351852 89.3761435,28.8033124 L89.3761435,23.529561 C89.3761435,23.4323916 89.4535567,23.2727563 89.5391804,23.1605488 C89.6224583,23.0506549 89.8969234,22.6619774 89.9391487,22.6064521 C89.9813741,22.5509267 90.0447122,22.3704693 90.0447122,22.2663593 L90.0447122,18.837669 C90.0447122,18.6849742 90.1713884,18.6016862 90.2417641,18.6016862 L92.2533349,18.6016862 Z" id="Stroke-17" stroke="#231916" stroke-width="0.567" stroke-linecap="round" stroke-linejoin="round" mask="url(#mask-4)"></path>
                                <path d="M90.9739055,18.2480591 C90.9739055,18.2480591 90.9985369,16.59618 90.3639831,15.6464652 C89.4139118,14.2213145 88.341856,12.8273969 88.341856,9.83018478 L88.341856,7.27717547" id="Stroke-18" stroke="#231916" stroke-width="0.567" stroke-linecap="round" stroke-linejoin="round" mask="url(#mask-4)"></path>
                                <path d="M88.743701,7.1654307 C88.856302,7.1654307 88.9829782,6.99885465 88.9829782,6.86004128 L88.9829782,5.92999167 L87.7009683,5.92999167 L87.7009683,6.86004128 C87.7009683,6.99885465 87.8276445,7.1654307 87.9390726,7.1654307 L88.743701,7.1654307 Z" id="Stroke-19" stroke="#231916" stroke-width="0.567" stroke-linecap="round" stroke-linejoin="round" mask="url(#mask-4)"></path>
                                <path d="M89.4114486,1.51827128 C89.6225756,1.51827128 89.6237485,1.79474125 89.6237485,1.90463517 L89.6237485,5.36108819 C89.6237485,5.69424029 89.4255238,5.93022303 89.1721714,5.93022303 L87.5113059,5.93022303 C87.2579536,5.93022303 87.0609017,5.69424029 87.0609017,5.36108819 L87.0609017,1.90463517 C87.0609017,1.79474125 87.0609017,1.51827128 87.2720287,1.51827128 L89.4114486,1.51827128 Z" id="Stroke-20" stroke="#231916" stroke-width="0.567" stroke-linecap="round" stroke-linejoin="round" mask="url(#mask-4)"></path>
                                <polygon id="Stroke-21" stroke="#231916" stroke-width="0.567" stroke-linecap="round" mask="url(#mask-4)" points="88.9922443 1.51827128 88.9828609 0.327946597 87.700851 0.327946597 87.6926405 1.51827128"></polygon>
                                <path d="M91.5202551,18.2480591 C91.5202551,18.2480591 91.4956236,16.59618 92.1301775,15.6464652 C93.0802488,14.2213145 94.1523046,12.8273969 94.1523046,9.83018478 L94.1523046,7.27717547" id="Stroke-22" stroke="#231916" stroke-width="0.567" stroke-linecap="round" stroke-linejoin="round" mask="url(#mask-4)"></path>
                                <path d="M93.7504596,7.1654307 C93.6378586,7.1654307 93.5111824,6.99885465 93.5111824,6.86004128 L93.5111824,5.92999167 L94.7931923,5.92999167 L94.7931923,6.86004128 C94.7931923,6.99885465 94.6665161,7.1654307 94.553915,7.1654307 L93.7504596,7.1654307 Z" id="Stroke-23" stroke="#231916" stroke-width="0.567" stroke-linecap="round" stroke-linejoin="round" mask="url(#mask-4)"></path>
                                <path d="M93.0825947,1.51827128 C92.8714677,1.51827128 92.8702948,1.79474125 92.8702948,1.90463517 L92.8702948,5.36108819 C92.8702948,5.69424029 93.0685195,5.93022303 93.3218719,5.93022303 L94.9827374,5.93022303 C95.2360897,5.93022303 95.4331415,5.69424029 95.4331415,5.36108819 L95.4331415,1.90463517 C95.4331415,1.79474125 95.4331415,1.51827128 95.2208417,1.51827128 L93.0825947,1.51827128 Z" id="Stroke-24" stroke="#231916" stroke-width="0.567" stroke-linecap="round" stroke-linejoin="round" mask="url(#mask-4)"></path>
                                <polygon id="Stroke-25" stroke="#231916" stroke-width="0.567" stroke-linecap="round" mask="url(#mask-4)" points="93.501799 1.51827128 93.5111824 0.327946597 94.7931923 0.327946597 94.8014027 1.51827128"></polygon>
                                <path d="M-0.000234585517,45.6605773 L0.515853551,41.032308 L2.48168018,45.1712601 L4.44750681,41.032308 L4.96359495,45.6605773 L4.66567134,45.6605773 L4.26453011,42.0664676 C4.26453011,42.0664676 2.48871775,45.8213694 2.48168018,45.8213694 L0.701176109,42.0664676 L0.298861948,45.6605773 L-0.000234585517,45.6605773 Z" id="Fill-26" fill="#231916" mask="url(#mask-4)"></path>
                                <path d="M6.15880815,44.2722122 C6.15880815,44.8887749 6.54587426,45.4798885 7.24728495,45.4798885 C7.94048515,45.4798885 8.32168662,44.9026562 8.32168662,44.2722122 C8.32168662,43.4601539 7.71528306,43.1189044 7.24024739,43.1189044 C6.68897142,43.1189044 6.15880815,43.5272471 6.15880815,44.2722122 Z M8.30761149,42.9245657 L8.57855776,42.9245657 L8.57855776,45.6603459 L8.30761149,45.6603459 L8.30761149,45.1710288 C8.02962765,45.5944096 7.58743395,45.7343797 7.22617226,45.7343797 C6.49895715,45.7343797 5.87261382,45.190694 5.87261382,44.2930342 C5.87261382,43.4474294 6.41685222,42.8632564 7.22617226,42.8632564 C7.66132839,42.8632564 8.04135693,43.0309892 8.30761149,43.4000015 L8.30761149,42.9245657 Z" id="Fill-27" fill="#231916" mask="url(#mask-4)"></path>
                                <path d="M9.59905524,45.6608086 L9.8765672,45.6608086 L9.8765672,42.9250284 L9.59905524,42.9250284 L9.59905524,45.6608086 Z M9.48781122,42.0111736 C9.48781122,41.8642628 9.59785907,41.7636231 9.73781122,41.7636231 C9.8765672,41.7636231 9.98781122,41.8642628 9.98781122,42.0111736 C9.98781122,42.1592412 9.8765672,42.2598809 9.73781122,42.2598809 C9.59785907,42.2598809 9.48781122,42.1592412 9.48781122,42.0111736 Z" id="Fill-28" fill="#231916" mask="url(#mask-4)"></path>
                                <path d="M10.8757364,42.92445 L11.1466827,42.92445 L11.1466827,43.3536147 C11.2768777,43.1257294 11.5290571,42.8631407 11.9970552,42.8631407 C12.4943765,42.8631407 12.7055035,43.1511785 12.7653228,43.2448775 C12.8884802,43.440373 12.9025553,43.6948642 12.9025553,43.9366308 L12.9025553,45.6602302 L12.6304361,45.6602302 L12.6304361,43.9366308 C12.6304361,43.7492328 12.6233985,43.5410127 12.5213538,43.3860044 C12.4603616,43.2853647 12.3113998,43.1187887 11.9771154,43.1187887 C11.595914,43.1187887 11.3988621,43.3200681 11.2968174,43.5005255 C11.174833,43.7156862 11.1466827,43.9701774 11.1466827,44.2385499 L11.1466827,45.6602302 L10.8757364,45.6602302 L10.8757364,42.92445 Z" id="Fill-29" fill="#231916" mask="url(#mask-4)"></path>
                                <path d="M15.4666923,42.92445 L15.4666923,44.5740156 C15.4666923,44.7683543 15.4737298,45.0575488 15.6438043,45.2588282 C15.8138788,45.4589508 16.0660583,45.4797728 16.1950803,45.4797728 C16.3229294,45.4797728 16.5751089,45.4589508 16.7451833,45.2588282 C16.9152578,45.0575488 16.9222954,44.7683543 16.9222954,44.5740156 L16.9222954,42.92445 L17.1944146,42.92445 L17.1944146,44.6468926 C17.1944146,44.868994 17.1744748,45.1581885 16.9832876,45.3987984 C16.7721607,45.6671709 16.4390493,45.734264 16.1950803,45.734264 C15.9499384,45.734264 15.616827,45.6671709 15.4057,45.3987984 C15.2156858,45.1581885 15.195746,44.868994 15.195746,44.6468926 L15.195746,42.92445 L15.4666923,42.92445 Z" id="Fill-30" fill="#231916" mask="url(#mask-4)"></path>
                                <path d="M18.197385,42.92445 L18.4695042,42.92445 L18.4695042,43.3536147 C18.5996992,43.1257294 18.8507057,42.8631407 19.3198767,42.8631407 C19.8160251,42.8631407 20.027152,43.1511785 20.0881443,43.2448775 C20.2113017,43.440373 20.2253768,43.6948642 20.2253768,43.9366308 L20.2253768,45.6602302 L19.9520847,45.6602302 L19.9520847,43.9366308 C19.9520847,43.7492328 19.9450471,43.5410127 19.8430024,43.3860044 C19.7831831,43.2853647 19.6330484,43.1187887 19.298764,43.1187887 C18.9187355,43.1187887 18.7205107,43.3200681 18.618466,43.5005255 C18.4964815,43.7156862 18.4695042,43.9701774 18.4695042,44.2385499 L18.4695042,45.6602302 L18.197385,45.6602302 L18.197385,42.92445 Z" id="Fill-31" fill="#231916" mask="url(#mask-4)"></path>
                                <path d="M21.2253802,45.6608086 L21.5023586,45.6608086 L21.5023586,42.9250284 L21.2253802,42.9250284 L21.2253802,45.6608086 Z M21.1138694,42.0111736 C21.1138694,41.8642628 21.2253802,41.7636231 21.3632699,41.7636231 C21.5023586,41.7636231 21.6138694,41.8642628 21.6138694,42.0111736 C21.6138694,42.1592412 21.5023586,42.2598809 21.3632699,42.2598809 C21.2253802,42.2598809 21.1138694,42.1592412 21.1138694,42.0111736 Z" id="Fill-32" fill="#231916" mask="url(#mask-4)"></path>
                                <polygon id="Fill-33" fill="#231916" mask="url(#mask-4)" points="22.803237 43.1787098 22.803237 45.6611556 22.5322908 45.6611556 22.5322908 43.1787098 22.2249837 43.1787098 22.2249837 42.9242186 22.5322908 42.9242186 22.5322908 41.9455843 22.803237 41.9455843 22.803237 42.9242186 23.2864832 42.9242186 23.2864832 43.1787098"></polygon>
                                <path d="M25.0814143,43.4271857 C24.9864071,43.212025 24.7952199,43.118326 24.5981681,43.118326 C24.2849964,43.118326 24.1289971,43.3543087 24.1289971,43.5544313 C24.1289971,43.8228039 24.3471616,43.9095622 24.6181079,44.0171426 C24.8984376,44.124723 25.1553087,44.1987568 25.3335937,44.4197014 C25.4473677,44.5596715 25.4755179,44.7077391 25.4755179,44.8615906 C25.4755179,45.4862508 25.0004823,45.7338013 24.5711908,45.7338013 C24.1090573,45.7338013 23.7278558,45.4665856 23.611736,45.0096582 L23.8779906,44.9298405 C23.9729977,45.2907553 24.2650567,45.4793101 24.5711908,45.4793101 C24.924242,45.4793101 25.1904965,45.2317596 25.1904965,44.8754719 C25.1904965,44.5666122 24.9934447,44.4532479 24.5711908,44.2855151 C24.292034,44.1721509 24.0879446,44.0842357 23.9659601,43.9234436 C23.9049679,43.8424691 23.8428027,43.7291048 23.8428027,43.5683127 C23.8428027,43.1518726 24.163012,42.8638348 24.584093,42.8638348 C24.9101668,42.8638348 25.183459,43.0119024 25.312481,43.3068808 L25.0814143,43.4271857 Z" id="Fill-34" fill="#231916" mask="url(#mask-4)"></path>
                                <path d="M18.1229041,32.8614058 L18.6812176,32.130322 L20.229482,7.74081214 C20.229482,3.65044471 16.8666986,0.332805065 12.7180538,0.332805065 C8.568236,0.332805065 5.20545261,3.65044471 5.20545261,7.74081214 L6.75606288,32.130322 L7.31320348,32.8614058 L18.1229041,32.8614058 Z" id="Fill-35" fill="#FEFEFE" mask="url(#mask-4)"></path>
                                <path d="M18.1229041,32.8614058 L18.6812176,32.130322 L20.229482,7.74081214 C20.229482,3.65044471 16.8666986,0.332805065 12.7180538,0.332805065 C8.568236,0.332805065 5.20545261,3.65044471 5.20545261,7.74081214 L6.75606288,32.130322 L7.31320348,32.8614058 L18.1229041,32.8614058 Z" id="Stroke-36" stroke="#231916" stroke-width="0.567" stroke-linecap="round" mask="url(#mask-4)"></path>
                                <path d="M16.5822637,32.1305533 C17.1863214,23.2383999 18.100032,9.50513012 18.1246635,8.87699961 C18.1375657,7.82201796 17.986258,6.83065911 17.6613571,5.88210106 C17.1182916,4.29731503 15.8198608,2.40829637 12.7174673,2.40829637 C9.61741972,2.40829637 8.31781596,4.29731503 7.77475049,5.88210106 C7.44984955,6.83065911 7.29736896,7.82201796 7.31144409,8.87699961 C7.33490264,9.50513012 8.24978616,23.2383999 8.85267093,32.1305533" id="Stroke-37" stroke="#231916" stroke-width="0.283" stroke-linecap="round" mask="url(#mask-4)"></path>
                                <path d="M7.31226514,8.55784452 L5.26433358,8.66658167" id="Stroke-38" stroke="#231916" stroke-width="0.283" stroke-linecap="round" mask="url(#mask-4)"></path>
                                <path d="M18.124077,8.55784452 L20.1696627,8.66658167" id="Stroke-39" stroke="#231916" stroke-width="0.283" stroke-linecap="round" mask="url(#mask-4)"></path>
                                <path d="M15.4414743,8.00872195 C15.4414743,9.48245727 14.2298401,10.6774091 12.7355304,10.6774091 C11.2423936,10.6774091 10.0307594,9.48245727 10.0307594,8.00872195 C10.0307594,6.53498663 11.2423936,5.34119161 12.7355304,5.34119161 C14.2298401,5.34119161 15.4414743,6.53498663 15.4414743,8.00872195 Z" id="Stroke-40" stroke="#231916" stroke-width="0.283" stroke-linecap="round" mask="url(#mask-4)"></path>
                                <path d="M12.7358823,9.60218381 C11.8444573,9.60218381 11.1195881,8.88729493 11.1195881,8.00930034 C11.1195881,7.13014897 11.8444573,6.41526009 12.7358823,6.41526009 C13.6273072,6.41526009 14.3521765,7.13014897 14.3521765,8.00930034 C14.3521765,8.88729493 13.6273072,9.60218381 12.7358823,9.60218381 Z" id="Stroke-41" stroke="#231916" stroke-width="0.283" stroke-linecap="round" mask="url(#mask-4)"></path>
                                <path d="M16.5834366,32.1305533 L16.0415441,32.8616371" id="Stroke-42" stroke="#231916" stroke-width="0.283" stroke-linecap="round" mask="url(#mask-4)"></path>
                                <path d="M8.85290552,32.1305533 L9.39362514,32.8616371" id="Stroke-43" stroke="#231916" stroke-width="0.283" stroke-linecap="round" mask="url(#mask-4)"></path>
                                <path d="M38.8748081,42.0987418 C38.487742,41.6487551 37.9294284,41.3954207 37.3441376,41.3954207 C36.1817663,41.3954207 35.3114541,42.3139025 35.3114541,43.447545 C35.3114541,44.7743695 36.4339458,45.4661229 37.3511751,45.4661229 C37.807444,45.4661229 38.4126746,45.2856655 38.8748081,44.7882509 L38.8748081,45.1769283 C38.4126746,45.5806439 37.855534,45.7344954 37.3652503,45.7344954 C36.0058272,45.7344954 34.9982824,44.6806705 34.9982824,43.4336637 C34.9982824,42.1461697 36.0457067,41.1258914 37.3511751,41.1258914 C38.2156228,41.1258914 38.7399214,41.5828187 38.8748081,41.7100643 L38.8748081,42.0987418 Z" id="Fill-44" fill="#231916" mask="url(#mask-4)"></path>
                                <path d="M40.0111403,44.2722122 C40.0111403,44.8887749 40.3982064,45.4798885 41.0996171,45.4798885 C41.7939902,45.4798885 42.1740188,44.9026562 42.1740188,44.2722122 C42.1740188,43.4601539 41.5687881,43.1189044 41.0925795,43.1189044 C40.5413036,43.1189044 40.0111403,43.5272471 40.0111403,44.2722122 Z M42.1599436,42.9245657 L42.4320628,42.9245657 L42.4320628,45.6603459 L42.1599436,45.6603459 L42.1599436,45.1710288 C41.8819598,45.5944096 41.4397661,45.7343797 41.0785044,45.7343797 C40.3512893,45.7343797 39.724946,45.190694 39.724946,44.2930342 C39.724946,43.4474294 40.2703573,42.8632564 41.0785044,42.8632564 C41.5136605,42.8632564 41.8936891,43.0309892 42.1599436,43.4000015 L42.1599436,42.9245657 Z" id="Fill-45" fill="#231916" mask="url(#mask-4)"></path>
                                <path d="M43.5802416,42.92445 L43.8523608,42.92445 L43.8523608,43.2795809 C43.9544055,43.0447549 44.1655325,42.8631407 44.464629,42.8631407 C44.5396964,42.8631407 44.6546433,42.8770221 44.7578609,42.9302339 L44.6218013,43.1720005 C44.5936511,43.1511785 44.5396964,43.1187887 44.4177119,43.1187887 C43.8593984,43.1187887 43.8523608,43.8498725 43.8523608,44.1922788 L43.8523608,45.6602302 L43.5802416,45.6602302 L43.5802416,42.92445 Z" id="Fill-46" fill="#231916" mask="url(#mask-4)"></path>
                                <path d="M45.5366849,42.92445 L45.8088041,42.92445 L45.8088041,43.2795809 C45.9108488,43.0447549 46.1219757,42.8631407 46.4210723,42.8631407 C46.4961396,42.8631407 46.6110865,42.8770221 46.7143042,42.9302339 L46.5782446,43.1720005 C46.5500943,43.1511785 46.4961396,43.1187887 46.3741552,43.1187887 C45.8158416,43.1187887 45.8088041,43.8498725 45.8088041,44.1922788 L45.8088041,45.6602302 L45.5366849,45.6602302 L45.5366849,42.92445 Z" id="Fill-47" fill="#231916" mask="url(#mask-4)"></path>
                                <polygon id="Fill-48" fill="#231916" mask="url(#mask-4)" points="48.5743327 45.7080052 47.2547892 42.924797 47.5667879 42.924797 48.7303321 45.3586582 49.7425686 42.924797 50.0569132 42.924797 48.2330108 47.2037193 47.921012 47.2037193"></polygon>
                                <path d="M50.8169267,45.6608086 L51.0932425,45.6608086 L51.0932425,42.9250284 L50.8169267,42.9250284 L50.8169267,45.6608086 Z M50.7044865,42.0111736 C50.7044865,41.8642628 50.8157305,41.7636231 50.9544865,41.7636231 C51.0932425,41.7636231 51.2044865,41.8642628 51.2044865,42.0111736 C51.2044865,42.1592412 51.0932425,42.2598809 50.9544865,42.2598809 C50.8157305,42.2598809 50.7044865,42.1592412 50.7044865,42.0111736 Z" id="Fill-49" fill="#231916" mask="url(#mask-4)"></path>
                                <path d="M52.228354,42.92445 L52.5004732,42.92445 L52.5004732,43.3536147 C52.6294952,43.1257294 52.8816747,42.8631407 53.3508457,42.8631407 C53.8469941,42.8631407 54.058121,43.1511785 54.1179404,43.2448775 C54.2422707,43.440373 54.2563458,43.6948642 54.2563458,43.9366308 L54.2563458,45.6602302 L53.9830537,45.6602302 L53.9830537,43.9366308 C53.9830537,43.7492328 53.9760161,43.5410127 53.8739714,43.3860044 C53.8141521,43.2853647 53.6640174,43.1187887 53.329733,43.1187887 C52.9497045,43.1187887 52.7514797,43.3200681 52.649435,43.5005255 C52.5274505,43.7156862 52.5004732,43.9701774 52.5004732,44.2385499 L52.5004732,45.6602302 L52.228354,45.6602302 L52.228354,42.92445 Z" id="Fill-50" fill="#231916" mask="url(#mask-4)"></path>
                                <path d="M55.5065693,44.3061058 C55.5065693,44.961999 55.9276503,45.4802356 56.580971,45.4802356 C57.2683065,45.4802356 57.6964251,44.9504312 57.6964251,44.2794999 C57.6964251,43.6421151 57.2753441,43.1192514 56.5950461,43.1192514 C55.9088835,43.1192514 55.5065693,43.6745049 55.5065693,44.3061058 Z M57.9556421,42.9249127 L57.9556421,45.5808752 C57.9556421,46.6127213 57.4325164,47.2038349 56.5610312,47.2038349 C55.8408537,47.2038349 55.235623,46.7885516 55.2016081,46.0297052 L55.4854566,46.0297052 C55.5335467,46.59884 55.9698757,46.948187 56.5610312,46.948187 C57.6565456,46.948187 57.68235,45.8619723 57.68235,45.5808752 L57.68235,45.191041 C57.4043661,45.5739346 56.9832851,45.73357 56.5880085,45.73357 C55.9088835,45.73357 55.2215479,45.2454096 55.2215479,44.2922244 C55.2215479,43.5009882 55.7517112,42.8636034 56.6220234,42.8636034 C57.0782923,42.8636034 57.4442457,43.0648828 57.68235,43.4003485 L57.68235,42.9249127 L57.9556421,42.9249127 Z" id="Fill-51" fill="#231916" mask="url(#mask-4)"></path>
                                <path d="M62.7434152,43.5684284 C62.5604385,43.3590515 62.2402293,43.1184417 61.7863063,43.1184417 C61.1060083,43.1184417 60.6286268,43.6355215 60.6286268,44.3064528 C60.6286268,45.0895916 61.2338574,45.4794258 61.7722312,45.4794258 C62.2144249,45.4794258 62.5604385,45.2249346 62.7774301,44.9901087 L62.7774301,45.3521802 C62.5944534,45.5129724 62.2543044,45.733917 61.7651936,45.733917 C60.9277233,45.733917 60.3424324,45.1242949 60.3424324,44.3133935 C60.3424324,43.5001784 60.8948813,42.8639505 61.7863063,42.8639505 C61.9833581,42.8639505 62.3633867,42.897497 62.7434152,43.2121407 L62.7434152,43.5684284 Z" id="Fill-52" fill="#231916" mask="url(#mask-4)"></path>
                                <path d="M63.7925989,44.2722122 C63.7925989,44.8887749 64.179665,45.4798885 64.8810757,45.4798885 C65.5754489,45.4798885 65.9554774,44.9026562 65.9554774,44.2722122 C65.9554774,43.4601539 65.3502468,43.1189044 64.8740382,43.1189044 C64.3227622,43.1189044 63.7925989,43.5272471 63.7925989,44.2722122 Z M65.9414023,42.9245657 L66.2135215,42.9245657 L66.2135215,45.6603459 L65.9414023,45.6603459 L65.9414023,45.1710288 C65.6634184,45.5944096 65.2212247,45.7343797 64.859963,45.7343797 C64.1327479,45.7343797 63.5064046,45.190694 63.5064046,44.2930342 C63.5064046,43.4474294 64.0518159,42.8632564 64.859963,42.8632564 C65.2951192,42.8632564 65.6751477,43.0309892 65.9414023,43.4000015 L65.9414023,42.9245657 Z" id="Fill-53" fill="#231916" mask="url(#mask-4)"></path>
                                <path d="M68.5621917,43.4271857 C68.4683575,43.212025 68.2771703,43.118326 68.0801184,43.118326 C67.7669468,43.118326 67.6109474,43.3543087 67.6109474,43.5544313 C67.6109474,43.8228039 67.8291119,43.9095622 68.1000582,44.0171426 C68.379215,44.124723 68.637259,44.1987568 68.8143711,44.4197014 C68.929318,44.5596715 68.9574683,44.7077391 68.9574683,44.8615906 C68.9574683,45.4862508 68.4824326,45.7338013 68.0531411,45.7338013 C67.5910076,45.7338013 67.2098062,45.4665856 67.0936863,45.0096582 L67.3599409,44.9298405 C67.454948,45.2907553 67.747007,45.4793101 68.0531411,45.4793101 C68.4061923,45.4793101 68.6724469,45.2317596 68.6724469,44.8754719 C68.6724469,44.5666122 68.475395,44.4532479 68.0531411,44.2855151 C67.7739843,44.1721509 67.5698949,44.0842357 67.4479105,43.9234436 C67.3869182,43.8424691 67.3247531,43.7291048 67.3247531,43.5683127 C67.3247531,43.1518726 67.6449623,42.8638348 68.0660433,42.8638348 C68.3921172,42.8638348 68.6654093,43.0119024 68.7932584,43.3068808 L68.5621917,43.4271857 Z" id="Fill-54" fill="#231916" mask="url(#mask-4)"></path>
                                <path d="M72.0581023,44.0710484 C71.9888996,43.5273627 71.5818937,43.1190201 71.0306178,43.1190201 C70.4664396,43.1190201 70.0652984,43.5412441 69.990231,44.0710484 L72.0581023,44.0710484 Z M69.9702912,44.3255396 C69.9702912,45.0230768 70.4863794,45.4800042 71.0716702,45.4800042 C71.5209015,45.4800042 71.8610505,45.2174156 72.0369896,44.8565008 L72.2692293,44.9895303 C72.1061924,45.29839 71.739066,45.7333386 71.0517305,45.7333386 C70.1872828,45.7333386 69.6852698,45.1040513 69.6852698,44.3058744 C69.6852698,43.353846 70.3514927,42.8633721 71.0306178,42.8633721 C71.7789456,42.8633721 72.3431237,43.4544857 72.3431237,44.3255396 L69.9702912,44.3255396 Z" id="Fill-55" fill="#231916" mask="url(#mask-4)"></path>
                                <rect id="Rectangle" stroke="#000000" stroke-width="0.57" fill-rule="nonzero" mask="url(#mask-4)" x="38.8865487" y="2.59855624" width="29.3658949" height="29.1206384" rx="5"></rect>
                                <path d="M41.3588022,5.97668695 L65.7801901,5.97668695" id="Path-2" stroke="#000000" stroke-width="0.57" stroke-dasharray="1" fill-rule="nonzero" mask="url(#mask-4)"></path>
                                <path id="Path-13" d="M67.2120028,4.56960126 C67.1622101,4.67064965 67.1245634,4.74107922 67.0833458,4.81105335 C66.9844319,4.97897704 66.8825144,5.10475128 66.7443112,5.22656676 C66.6169998,5.33878191 66.4646552,5.44471805 66.1883731,5.61861831 C66.1971921,5.61306742 65.494613,6.04920943 65.2069503,6.23212665 L64.9010989,5.75113297 C65.1919429,5.56619285 65.8960661,5.12909227 65.8847385,5.1362222 C66.1365618,4.97771705 66.2694298,4.88532434 66.3674105,4.7989619 C66.4590554,4.71818406 66.5229859,4.63928879 66.5922162,4.52175809 C66.6263808,4.46375778 66.659509,4.40148363 66.705375,4.30809745 C65.2051611,3.37713246 64.623485,1.48359877 65.4202539,-0.0498343681 C66.2581307,-1.66238236 68.2980944,-2.25649497 69.9740927,-1.38564948 C71.650091,-0.514803996 72.3365655,1.49596063 71.4986887,3.10850863 C70.7048658,4.63627202 68.8320396,5.24987927 67.2120028,4.56960126 Z M69.7112817,-0.87985272 C68.309597,-1.60816538 66.6160319,-1.11493682 65.9260506,0.212976655 C65.2360694,1.54089013 65.8059762,3.21021431 67.2076609,3.93852698 C68.6093456,4.66683964 70.3029106,4.17361108 70.9928919,2.8456976 C71.6828732,1.51778413 71.1129664,-0.151540057 69.7112817,-0.87985272 Z" fill="#000000" fill-rule="nonzero"></path>
                                <path id="Path-14" d="M67.1767289,5.8125866 C66.6317483,5.96566651 66.1437765,6.11266756 65.4745302,6.33056573 L65.2980632,5.78856997 C65.9112539,5.58892282 66.375161,5.44776687 66.8671018,5.30777743 C66.0923804,3.77482149 66.5336102,1.9021343 67.9531988,0.981925334 C69.4780866,-0.00654095882 71.5453547,0.484197655 72.572715,2.06908659 C73.6000753,3.65397553 73.2040706,5.7414625 71.6791827,6.72992879 C70.2101781,7.6821703 68.2378186,7.26163849 67.1767289,5.8125866 Z M72.094414,2.37913197 C71.2352036,1.05364462 69.5189706,0.646236495 68.2632441,1.46022635 C67.0075177,2.27421621 66.678757,4.0072348 67.5379675,5.33272215 C68.3971779,6.65820951 70.1134109,7.06561763 71.3691373,6.25162777 C72.6248637,5.43763792 72.9536244,3.70461933 72.094414,2.37913197 Z" fill="#000000" fill-rule="nonzero"></path>
                            </g>
                            <g id="Group-59">
                                <path d="M123.570739,33.9880295 C123.279885,33.4271031 122.770278,33.4125964 122.64196,33.4125964 C122.082247,33.4125964 121.763285,33.8115311 121.763285,34.2817906 C121.763285,34.7871079 122.117688,34.955144 122.591854,35.1860426 C123.05991,35.4108967 123.293328,35.5088171 123.535299,35.6768532 C123.740608,35.8170848 124.038796,36.0624901 124.038796,36.5823141 C124.038796,37.3656769 123.371541,37.9471544 122.564969,37.9471544 C121.955151,37.9471544 121.643521,37.6606468 121.465098,37.4575527 C121.281786,37.2472053 121.203573,37.0646625 121.1608,36.9449821 L121.430879,36.8192572 C121.494428,37.0018 121.614191,37.1843429 121.685072,37.2677565 C121.897714,37.5349219 122.244784,37.6679001 122.571079,37.6679001 C123.209004,37.6679001 123.711278,37.2048941 123.711278,36.5871497 C123.711278,36.3356999 123.61229,36.0697435 123.250555,35.8521427 C123.117348,35.7759824 122.839936,35.6345419 122.451315,35.4459546 C121.983259,35.2223094 121.749842,35.0953756 121.586083,34.8282102 C121.479763,34.6541296 121.43699,34.4776312 121.43699,34.2962973 C121.43699,33.757131 121.806058,33.1321332 122.649292,33.1321332 C123.124681,33.1321332 123.556074,33.3569873 123.798046,33.7982333 L123.570739,33.9880295 Z" id="Fill-1" fill="#231916"></path>
                                <polygon id="Fill-3" fill="#231916" points="19.4959449 33.1958419 19.4959449 37.5901683 20.8145678 37.5901683 20.8145678 37.8706315 19.1843148 37.8706315 19.1843148 33.1958419"></polygon>
                                <path d="M75.6268783,15.2914097 C75.6268783,20.8680336 71.0563037,25.3905027 65.4176322,25.3905027 C59.7789608,25.3905027 55.2083862,20.8680336 55.2083862,15.2914097 C55.2083862,9.71357696 59.7789608,5.19231676 65.4176322,5.19231676 C71.0563037,5.19231676 75.6268783,9.71357696 75.6268783,15.2914097" id="Fill-5" fill="#FEFEFE"></path>
                                <path d="M75.6268783,15.2914097 C75.6268783,20.8680336 71.0563037,25.3905027 65.4176322,25.3905027 C59.7789608,25.3905027 55.2083862,20.8680336 55.2083862,15.2914097 C55.2083862,9.71357696 59.7789608,5.19231676 65.4176322,5.19231676 C71.0563037,5.19231676 75.6268783,9.71357696 75.6268783,15.2914097 Z" id="Stroke-7" stroke="#231916" stroke-width="0.567" stroke-linecap="round" stroke-linejoin="round"></path>
                                <path d="M65.4170212,23.6770176 C60.743792,23.6770176 56.9394608,19.9149423 56.9394608,15.2909262 C56.9394608,10.6669101 60.743792,6.90483473 65.4170212,6.90483473 C70.0914725,6.90483473 73.8945816,10.6669101 73.8945816,15.2909262 C73.8945816,19.9149423 70.0914725,23.6770176 65.4170212,23.6770176" id="Fill-9" fill="#FEFEFE"></path>
                                <path d="M65.4170212,23.6770176 C60.743792,23.6770176 56.9394608,19.9149423 56.9394608,15.2909262 C56.9394608,10.6669101 60.743792,6.90483473 65.4170212,6.90483473 C70.0914725,6.90483473 73.8945816,10.6669101 73.8945816,15.2909262 C73.8945816,19.9149423 70.0914725,23.6770176 65.4170212,23.6770176 Z" id="Stroke-11" stroke="#231916" stroke-width="0.283" stroke-linecap="round" stroke-linejoin="round"></path>
                                <path d="M88.2188113,15.2914097 C88.2188113,23.5469407 81.4533832,30.2393729 73.1078073,30.2393729 C64.7622314,30.2393729 57.9968033,23.5469407 57.9968033,15.2914097 C57.9968033,7.03466984 64.7622314,0.342237637 73.1078073,0.342237637 C81.4533832,0.342237637 88.2188113,7.03466984 88.2188113,15.2914097" id="Fill-13" fill="#FEFEFE"></path>
                                <path d="M88.2188113,15.2914097 C88.2188113,23.5469407 81.4533832,30.2393729 73.1078073,30.2393729 C64.7622314,30.2393729 57.9968033,23.5469407 57.9968033,15.2914097 C57.9968033,7.03466984 64.7622314,0.342237637 73.1078073,0.342237637 C81.4533832,0.342237637 88.2188113,7.03466984 88.2188113,15.2914097 Z" id="Stroke-15" stroke="#231916" stroke-width="0.567" stroke-linecap="round" stroke-linejoin="round"></path>
                                <path d="M73.1075629,28.5267341 C65.7298734,28.5267341 59.7282445,22.5886512 59.7282445,15.2905635 C59.7282445,7.99247585 65.7298734,2.05560183 73.1075629,2.05560183 C80.4852524,2.05560183 86.4868813,7.99247585 86.4868813,15.2905635 C86.4868813,22.5886512 80.4852524,28.5267341 73.1075629,28.5267341" id="Fill-17" fill="#FEFEFE"></path>
                                <path d="M73.1075629,28.5267341 C65.7298734,28.5267341 59.7282445,22.5886512 59.7282445,15.2905635 C59.7282445,7.99247585 65.7298734,2.05560183 73.1075629,2.05560183 C80.4852524,2.05560183 86.4868813,7.99247585 86.4868813,15.2905635 C86.4868813,22.5886512 80.4852524,28.5267341 73.1075629,28.5267341 Z" id="Stroke-19" stroke="#231916" stroke-width="0.283" stroke-linecap="round" stroke-linejoin="round"></path>
                                <path d="M69.6166949,37.8708733 L70.1544096,33.034092 L72.2026136,37.3595115 L74.2508176,33.034092 L74.7885323,37.8708733 L74.4781242,37.8708733 L74.0601733,34.1148424 C74.0601733,34.1148424 72.209946,38.0389094 72.2026136,38.0389094 L70.347498,34.1148424 L69.928325,37.8708733 L69.6166949,37.8708733 Z" id="Fill-21" fill="#231916"></path>
                                <path d="M38.9525388,46.9445831 C38.9598712,47.1259171 39.0160869,47.3024155 39.1077428,47.4426471 C39.2849442,47.6940969 39.6332366,47.8766397 39.9448667,47.8766397 C40.5253541,47.8766397 41.0080753,47.3725313 41.0080753,46.7910537 C41.0080753,46.3909101 40.8088764,46.0898957 40.5607944,45.9351574 C40.4043683,45.837237 40.1856162,45.7949258 39.9583096,45.7949258 L39.9583096,45.5144626 C40.3200449,45.5144626 40.5473516,45.3391731 40.5962347,45.2980707 C40.8015439,45.1288257 40.9433051,44.842318 40.9433051,44.5340503 C40.9433051,44.0359863 40.6243425,43.6225449 40.0365226,43.6225449 C39.8446563,43.6225449 39.5684665,43.6563939 39.3558248,43.8957547 C39.2067312,44.0565375 39.1224077,44.288645 39.1150752,44.5195436 L38.8181101,44.5195436 C38.8254426,44.1689646 38.9745362,43.8752035 39.1651805,43.678154 C39.4474807,43.3916463 39.7811082,43.3420817 40.0365226,43.3420817 C40.8149868,43.3420817 41.2696001,43.8752035 41.2696001,44.5122902 C41.2696001,44.9112249 41.0923987,45.4165422 40.5253541,45.6413964 C41.034961,45.8021791 41.3331482,46.2506785 41.3331482,46.7838003 C41.3331482,47.5695809 40.7159984,48.1571029 39.9448667,48.1571029 C39.5195833,48.1571029 39.0515271,47.9467555 38.8107776,47.5478208 C38.7191217,47.4003358 38.6396866,47.1972418 38.6396866,46.9445831 L38.9525388,46.9445831 Z" id="Fill-23" fill="#231916"></path>
                                <path d="M45.3804287,45.7463283 C45.2814403,45.5214742 45.0822415,45.4235538 44.8769322,45.4235538 C44.5506372,45.4235538 44.3881007,45.670168 44.3881007,45.8793065 C44.3881007,46.1597697 44.6154074,46.2504367 44.8977076,46.3628638 C45.1897844,46.4752908 45.4574197,46.55266 45.6431756,46.7835586 C45.7617173,46.9298346 45.7910472,47.0845729 45.7910472,47.2453557 C45.7910472,47.898158 45.2961053,48.1568611 44.8488244,48.1568611 C44.3673254,48.1568611 43.9701498,47.8776068 43.849164,47.400094 L44.1265759,47.3166804 C44.2255643,47.6938551 44.5298619,47.8909046 44.8488244,47.8909046 C45.2166701,47.8909046 45.494082,47.6322015 45.494082,47.2598624 C45.494082,46.937088 45.2887728,46.8186165 44.8488244,46.643327 C44.5579697,46.5248554 44.345328,46.4329796 44.2182318,46.2649434 C44.1546837,46.1803209 44.0899135,46.0618494 44.0899135,45.8938132 C44.0899135,45.4586117 44.423541,45.1575973 44.8622673,45.1575973 C45.2020052,45.1575973 45.4867495,45.3123357 45.6211782,45.6206034 L45.3804287,45.7463283 Z" id="Fill-25" fill="#231916"></path>
                                <mask id="mask-6" fill="white">
                                    <use xlink:href="#path-5"></use>
                                </mask>
                                <g id="Clip-28"></g>
                                <path d="M46.7176273,48.0799755 L46.9999275,48.0799755 L46.9999275,45.2209433 L46.7176273,45.2209433 L46.7176273,48.0799755 Z M46.603974,44.2671267 C46.603974,44.1123884 46.7176273,44.0072147 46.8581663,44.0072147 C46.9999275,44.0072147 47.1135808,44.1123884 47.1135808,44.2671267 C47.1135808,44.421865 46.9999275,44.5270387 46.8581663,44.5270387 C46.7176273,44.5270387 46.603974,44.421865 46.603974,44.2671267 Z" id="Fill-27" fill="#231916" mask="url(#mask-6)"></path>
                                <polygon id="Fill-29" fill="#231916" mask="url(#mask-6)" points="48.4296374 47.8135355 50.7540313 47.8135355 50.7540313 48.0807009 47.8210422 48.0807009 50.1869867 45.4864163 48.1888879 45.4864163 48.1888879 45.2204598 50.7686962 45.2204598"></polygon>
                                <path d="M53.7929745,46.4193191 C53.722094,45.8511393 53.2968106,45.4244001 52.7224335,45.4244001 C52.1358357,45.4244001 51.7166627,45.865646 51.6384497,46.4193191 L53.7929745,46.4193191 Z M51.6176743,46.6852756 C51.6176743,47.4142381 52.155389,47.8917509 52.7652063,47.8917509 C53.2332625,47.8917509 53.5876653,47.6173321 53.7709771,47.2401575 L54.0129487,47.3791802 C53.8430798,47.7019547 53.4605691,48.1564985 52.744431,48.1564985 C51.8437589,48.1564985 51.3207092,47.4988606 51.3207092,46.6647244 C51.3207092,45.6698054 52.0148499,45.1572347 52.7224335,45.1572347 C53.5033419,45.1572347 54.0899397,45.7749791 54.0899397,46.6852756 L51.6176743,46.6852756 Z" id="Fill-30" fill="#231916" mask="url(#mask-6)"></path>
                                <path d="M56.3623952,45.7463283 C56.2634068,45.5214742 56.06543,45.4235538 55.8601208,45.4235538 C55.5338257,45.4235538 55.3700672,45.670168 55.3700672,45.8793065 C55.3700672,46.1597697 55.5973738,46.2504367 55.8808961,46.3628638 C56.1717509,46.4752908 56.4406082,46.55266 56.6251421,46.7835586 C56.7449058,46.9298346 56.7742357,47.0845729 56.7742357,47.2453557 C56.7742357,47.898158 56.2780717,48.1568611 55.8307909,48.1568611 C55.3492919,48.1568611 54.9533383,47.8776068 54.8323525,47.400094 L55.1085423,47.3166804 C55.2087528,47.6938551 55.5130504,47.8909046 55.8307909,47.8909046 C56.1998587,47.8909046 56.4760485,47.6322015 56.4760485,47.2598624 C56.4760485,46.937088 56.2707392,46.8186165 55.8307909,46.643327 C55.5411582,46.5248554 55.3272944,46.4329796 55.2014203,46.2649434 C55.1366501,46.1803209 55.0731021,46.0618494 55.0731021,45.8938132 C55.0731021,45.4586117 55.4067296,45.1575973 55.8454558,45.1575973 C56.1851937,45.1575973 56.468716,45.3123357 56.6031447,45.6206034 L56.3623952,45.7463283 Z" id="Fill-31" fill="#231916" mask="url(#mask-6)"></path>
                                <path d="M61.6994576,46.6577128 C61.6994576,45.9638082 61.1739637,45.4234329 60.479823,45.4234329 C59.7869043,45.4234329 59.2614104,45.9638082 59.2614104,46.6577128 C59.2614104,47.3504085 59.7869043,47.8919927 60.479823,47.8919927 C61.1739637,47.8919927 61.6994576,47.3504085 61.6994576,46.6577128 M61.9964227,46.6577128 C61.9964227,47.5051469 61.3377223,48.1567402 60.479823,48.1567402 C59.6231457,48.1567402 58.9644453,47.5051469 58.9644453,46.6577128 C58.9644453,45.8090698 59.6231457,45.1574765 60.479823,45.1574765 C61.3377223,45.1574765 61.9964227,45.8090698 61.9964227,46.6577128" id="Fill-32" fill="#231916" mask="url(#mask-6)"></path>
                                <path d="M63.2891376,45.486658 L63.2891376,48.0809426 L63.0056154,48.0809426 L63.0056154,45.486658 L62.6793203,45.486658 L62.6793203,45.2207016 L63.0056154,45.2207016 L63.0056154,43.8606968 C63.0056154,43.0543651 63.4235663,42.886329 63.7645263,42.886329 C63.8830679,42.886329 63.962503,42.9141335 64.0113862,42.9286402 L64.0113862,43.1885523 C63.9405056,43.1595388 63.8769575,43.1522855 63.791412,43.1522855 C63.54333,43.1522855 63.2891376,43.2574592 63.2891376,43.9163059 L63.2891376,45.2207016 L64.0113862,45.2207016 L64.0113862,45.486658 L63.2891376,45.486658 Z" id="Fill-33" fill="#231916" mask="url(#mask-6)"></path>
                                <path d="M70.1132255,46.4193191 C70.0423449,45.8511393 69.6170615,45.4244001 69.0426845,45.4244001 C68.4560867,45.4244001 68.0369137,45.865646 67.9587006,46.4193191 L70.1132255,46.4193191 Z M67.9379253,46.6852756 C67.9379253,47.4142381 68.4756399,47.8917509 69.0854572,47.8917509 C69.5535134,47.8917509 69.9079163,47.6173321 70.0912281,47.2401575 L70.3331997,47.3791802 C70.1633307,47.7019547 69.7808201,48.1564985 69.0646819,48.1564985 C68.1640099,48.1564985 67.6409601,47.4988606 67.6409601,46.6647244 C67.6409601,45.6698054 68.3351009,45.1572347 69.0426845,45.1572347 C69.8235928,45.1572347 70.4101906,45.7749791 70.4101906,46.6852756 L67.9379253,46.6852756 Z" id="Fill-34" fill="#231916" mask="url(#mask-6)"></path>
                                <path d="M71.5477016,46.6294247 C71.5477016,47.2737647 71.9509876,47.8915091 72.6817907,47.8915091 C73.4040392,47.8915091 73.8012148,47.2882714 73.8012148,46.6294247 C73.8012148,45.7807817 73.1694001,45.4241583 72.6744582,45.4241583 C72.1000812,45.4241583 71.5477016,45.8508975 71.5477016,46.6294247 Z M73.7865499,45.2210642 L74.0688501,45.2210642 L74.0688501,48.0800964 L73.7865499,48.0800964 L73.7865499,47.5687346 C73.4969172,48.0111895 73.0361935,48.1574656 72.6597932,48.1574656 C71.9021044,48.1574656 71.2495143,47.5892858 71.2495143,46.6511848 C71.2495143,45.7674839 71.8165589,45.1569929 72.6597932,45.1569929 C73.1131845,45.1569929 73.509138,45.3322824 73.7865499,45.7179193 L73.7865499,45.2210642 Z" id="Fill-35" fill="#231916" mask="url(#mask-6)"></path>
                                <path d="M75.2664873,45.2209433 L75.5500095,45.2209433 L75.5500095,45.5920735 C75.6563304,45.3466682 75.8763046,45.156872 76.1879347,45.156872 C76.2649256,45.156872 76.3859114,45.1713787 76.4922323,45.2269878 L76.3516932,45.4796465 C76.3223633,45.4578864 76.2649256,45.4240374 76.1390515,45.4240374 C75.557342,45.4240374 75.5500095,46.1880578 75.5500095,46.5458902 L75.5500095,48.0799755 L75.2664873,48.0799755 L75.2664873,45.2209433 Z" id="Fill-36" fill="#231916" mask="url(#mask-6)"></path>
                                <path d="M79.9936102,45.7463283 C79.8946218,45.5214742 79.6954229,45.4235538 79.4901137,45.4235538 C79.1638187,45.4235538 79.0012822,45.670168 79.0012822,45.8793065 C79.0012822,46.1597697 79.2285888,46.2504367 79.510889,46.3628638 C79.8029659,46.4752908 80.0706011,46.55266 80.2563571,46.7835586 C80.3748987,46.9298346 80.4042286,47.0845729 80.4042286,47.2453557 C80.4042286,47.898158 79.9092867,48.1568611 79.4620059,48.1568611 C78.9805069,48.1568611 78.5833313,47.8776068 78.4623455,47.400094 L78.7397573,47.3166804 C78.8387457,47.6938551 79.1430433,47.8909046 79.4620059,47.8909046 C79.8298516,47.8909046 80.1072635,47.6322015 80.1072635,47.2598624 C80.1072635,46.937088 79.9019542,46.8186165 79.4620059,46.643327 C79.1711511,46.5248554 78.9585094,46.4329796 78.8314132,46.2649434 C78.7678651,46.1803209 78.703095,46.0618494 78.703095,45.8938132 C78.703095,45.4586117 79.0367225,45.1575973 79.4754488,45.1575973 C79.8151867,45.1575973 80.099931,45.3123357 80.2343597,45.6206034 L79.9936102,45.7463283 Z" id="Fill-37" fill="#231916" mask="url(#mask-6)"></path>
                                <polygon id="Fill-38" fill="#231916" mask="url(#mask-6)" points="81.6381616 45.486658 81.6381616 48.0809426 81.3558614 48.0809426 81.3558614 45.486658 81.0356767 45.486658 81.0356767 45.2207016 81.3558614 45.2207016 81.3558614 44.197978 81.6381616 44.197978 81.6381616 45.2207016 82.141658 45.2207016 82.141658 45.486658"></polygon>
                                <path d="M82.9903917,46.6294247 C82.9903917,47.2737647 83.3936777,47.8915091 84.1244808,47.8915091 C84.8467294,47.8915091 85.243905,47.2882714 85.243905,46.6294247 C85.243905,45.7807817 84.6120903,45.4241583 84.1171483,45.4241583 C83.5427713,45.4241583 82.9903917,45.8508975 82.9903917,46.6294247 Z M85.22924,45.2210642 L85.5115402,45.2210642 L85.5115402,48.0800964 L85.22924,48.0800964 L85.22924,47.5687346 C84.9396074,48.0111895 84.4788837,48.1574656 84.1024834,48.1574656 C83.3447946,48.1574656 82.6922045,47.5892858 82.6922045,46.6511848 C82.6922045,45.7674839 83.2592491,45.1569929 84.1024834,45.1569929 C84.5558746,45.1569929 84.9518281,45.3322824 85.22924,45.7179193 L85.22924,45.2210642 Z" id="Fill-39" fill="#231916" mask="url(#mask-6)"></path>
                                <path d="M89.2308148,46.6294247 C89.2308148,45.8448531 88.706543,45.4241583 88.1113906,45.4241583 C87.5443461,45.4241583 86.9773015,45.823093 86.9773015,46.614918 C86.9773015,47.3305827 87.3744771,47.8915091 88.1040581,47.8915091 C88.8348612,47.8915091 89.2308148,47.3305827 89.2308148,46.6294247 Z M86.9919665,42.9713142 L86.9919665,45.7179193 C87.2693783,45.3455802 87.6653319,45.1569929 88.1260556,45.1569929 C88.9986198,45.1569929 89.529002,45.8013329 89.529002,46.6294247 C89.529002,47.4696054 88.9912873,48.1574656 88.1113906,48.1574656 C87.3964745,48.1574656 87.0762899,47.7089662 86.9919665,47.5687346 L86.9919665,48.0800964 L86.7096663,48.0800964 L86.7096663,42.9713142 L86.9919665,42.9713142 Z" id="Fill-40" fill="#231916" mask="url(#mask-6)"></path>
                                <path d="M90.5474824,48.0799755 L90.8310047,48.0799755 L90.8310047,45.2209433 L90.5474824,45.2209433 L90.5474824,48.0799755 Z M90.4338291,44.2671267 C90.4338291,44.1123884 90.5474824,44.0072147 90.6892436,44.0072147 C90.8310047,44.0072147 90.944658,44.1123884 90.944658,44.2671267 C90.944658,44.421865 90.8310047,44.5270387 90.6892436,44.5270387 C90.5474824,44.5270387 90.4338291,44.421865 90.4338291,44.2671267 Z" id="Fill-41" fill="#231916" mask="url(#mask-6)"></path>
                                <polygon id="Fill-42" fill="#231916" mask="url(#mask-6)" points="92.0188653 48.0799755 92.367874 48.0799755 92.367874 42.9699844 92.0188653 42.9699844"></polygon>
                                <path d="M93.4902481,48.0799755 L93.7725483,48.0799755 L93.7725483,45.2209433 L93.4902481,45.2209433 L93.4902481,48.0799755 Z M93.3765948,44.2671267 C93.3765948,44.1123884 93.4902481,44.0072147 93.6307872,44.0072147 C93.7725483,44.0072147 93.8862016,44.1123884 93.8862016,44.2671267 C93.8862016,44.421865 93.7725483,44.5270387 93.6307872,44.5270387 C93.4902481,44.5270387 93.3765948,44.421865 93.3765948,44.2671267 Z" id="Fill-43" fill="#231916" mask="url(#mask-6)"></path>
                                <polygon id="Fill-44" fill="#231916" mask="url(#mask-6)" points="95.2027471 47.8135355 97.5271409 47.8135355 97.5271409 48.0807009 94.5941519 48.0807009 96.9600964 45.4864163 94.9619976 45.4864163 94.9619976 45.2204598 97.5418059 45.2204598"></polygon>
                                <path d="M100.566084,46.4193191 C100.495204,45.8511393 100.06992,45.4244001 99.4955432,45.4244001 C98.9089454,45.4244001 98.4897724,45.865646 98.4115593,46.4193191 L100.566084,46.4193191 Z M98.390784,46.6852756 C98.390784,47.4142381 98.9284986,47.8917509 99.538316,47.8917509 C100.006372,47.8917509 100.360775,47.6173321 100.544087,47.2401575 L100.786058,47.3791802 C100.616189,47.7019547 100.233679,48.1564985 99.5175406,48.1564985 C98.6168686,48.1564985 98.0938188,47.4988606 98.0938188,46.6647244 C98.0938188,45.6698054 98.7879596,45.1572347 99.4955432,45.1572347 C100.276452,45.1572347 100.863049,45.7749791 100.863049,46.6852756 L98.390784,46.6852756 Z" id="Fill-45" fill="#231916" mask="url(#mask-6)"></path>
                                <path d="M101.877741,45.2209433 L102.160042,45.2209433 L102.160042,45.5920735 C102.266362,45.3466682 102.486337,45.156872 102.799189,45.156872 C102.87618,45.156872 102.997165,45.1713787 103.103486,45.2269878 L102.961725,45.4796465 C102.932395,45.4578864 102.87618,45.4240374 102.749084,45.4240374 C102.167374,45.4240374 102.160042,46.1880578 102.160042,46.5458902 L102.160042,48.0799755 L101.877741,48.0799755 L101.877741,45.2209433 Z" id="Fill-46" fill="#231916" mask="url(#mask-6)"></path>
                                <path d="M137.548265,15.2914097 C137.548265,23.2640597 131.01381,29.7268022 122.955423,29.7268022 C114.894591,29.7268022 108.361358,23.2640597 108.361358,15.2914097 C108.361358,7.31875972 114.894591,0.856017205 122.955423,0.856017205 C131.01381,0.856017205 137.548265,7.31875972 137.548265,15.2914097" id="Fill-47" fill="#FEFEFE" mask="url(#mask-6)"></path>
                                <path d="M137.548265,15.2914097 C137.548265,23.2640597 131.01381,29.7268022 122.955423,29.7268022 C114.894591,29.7268022 108.361358,23.2640597 108.361358,15.2914097 C108.361358,7.31875972 114.894591,0.856017205 122.955423,0.856017205 C131.01381,0.856017205 137.548265,7.31875972 137.548265,15.2914097 Z" id="Stroke-48" stroke="#231916" stroke-width="0.567" stroke-linecap="round" stroke-linejoin="round" mask="url(#mask-6)"></path>
                                <path d="M122.953834,28.0131963 C115.862111,28.0131963 110.093899,22.3048031 110.093899,15.2908053 C110.093899,8.27559861 115.862111,2.56841428 122.953834,2.56841428 C130.045557,2.56841428 135.814991,8.27559861 135.814991,15.2908053 C135.814991,22.3048031 130.045557,28.0131963 122.953834,28.0131963" id="Fill-49" fill="#FEFEFE" mask="url(#mask-6)"></path>
                                <path d="M122.953834,28.0131963 C115.862111,28.0131963 110.093899,22.3048031 110.093899,15.2908053 C110.093899,8.27559861 115.862111,2.56841428 122.953834,2.56841428 C130.045557,2.56841428 135.814991,8.27559861 135.814991,15.2908053 C135.814991,22.3048031 130.045557,28.0131963 122.953834,28.0131963 Z" id="Stroke-50" stroke="#231916" stroke-width="0.283" stroke-linecap="round" stroke-linejoin="round" mask="url(#mask-6)"></path>
                                <path d="M106.629917,45.34147 L140.061104,45.34147" id="Stroke-51" stroke="#231916" stroke-width="0.283" mask="url(#mask-6)"></path>
                                <path d="M26.3904245,15.5074389 C26.3904245,22.144262 20.9509518,27.5262541 14.2405173,27.5262541 C7.52886069,27.5262541 2.08938808,22.144262 2.08938808,15.5074389 C2.08938808,8.8694069 7.52886069,3.48862371 14.2405173,3.48862371 C20.9509518,3.48862371 26.3904245,8.8694069 26.3904245,15.5074389" id="Fill-52" fill="#FEFEFE" mask="url(#mask-6)"></path>
                                <path d="M26.3904245,15.5074389 C26.3904245,22.144262 20.9509518,27.5262541 14.2405173,27.5262541 C7.52886069,27.5262541 2.08938808,22.144262 2.08938808,15.5074389 C2.08938808,8.8694069 7.52886069,3.48862371 14.2405173,3.48862371 C20.9509518,3.48862371 26.3904245,8.8694069 26.3904245,15.5074389 Z" id="Stroke-53" stroke="#231916" stroke-width="0.567" stroke-linecap="round" stroke-linejoin="round" mask="url(#mask-6)"></path>
                                <path d="M14.2400285,25.8126482 C8.49503617,25.8126482 3.82180694,21.1898409 3.82180694,15.5080434 C3.82180694,9.82382801 8.49503617,5.20102079 14.2400285,5.20102079 C19.9850208,5.20102079 24.65825,9.82382801 24.65825,15.5080434 C24.65825,21.1898409 19.9850208,25.8126482 14.2400285,25.8126482 Z" id="Stroke-54" stroke="#231916" stroke-width="0.283" stroke-linecap="round" stroke-linejoin="round" mask="url(#mask-6)"></path>
                                <path d="M36.7983805,15.2914097 C36.7983805,23.5469407 30.0329524,30.2393729 21.6861544,30.2393729 C13.3405785,30.2393729 6.57515042,23.5469407 6.57515042,15.2914097 C6.57515042,7.03466984 13.3405785,0.342237637 21.6861544,0.342237637 C30.0329524,0.342237637 36.7983805,7.03466984 36.7983805,15.2914097" id="Fill-55" fill="#FEFEFE" mask="url(#mask-6)"></path>
                                <path d="M36.7983805,15.2914097 C36.7983805,23.5469407 30.0329524,30.2393729 21.6861544,30.2393729 C13.3405785,30.2393729 6.57515042,23.5469407 6.57515042,15.2914097 C6.57515042,7.03466984 13.3405785,0.342237637 21.6861544,0.342237637 C30.0329524,0.342237637 36.7983805,7.03466984 36.7983805,15.2914097 Z" id="Stroke-56" stroke="#231916" stroke-width="0.567" stroke-linecap="round" stroke-linejoin="round" mask="url(#mask-6)"></path>
                                <path d="M21.68591,28.5267341 C14.3082205,28.5267341 8.30659162,22.5886512 8.30659162,15.2905635 C8.30659162,7.99247585 14.3082205,2.05560183 21.68591,2.05560183 C29.0635996,2.05560183 35.0664505,7.99247585 35.0664505,15.2905635 C35.0664505,22.5886512 29.0635996,28.5267341 21.68591,28.5267341 Z" id="Stroke-57" stroke="#231916" stroke-width="0.283" stroke-linecap="round" stroke-linejoin="round" mask="url(#mask-6)"></path>
                                <path d="M0,45.34147 L33.6462727,45.34147" id="Stroke-58" stroke="#231916" stroke-width="0.283" mask="url(#mask-6)"></path>
                            </g>
                        </g>
                    </g>
                </g>
            </g>
        </g>
    </g>
</svg>