<?xml version="1.0" encoding="UTF-8"?>
<svg width="190px" height="39px" viewBox="0 0 190 39" version="1.1" xmlns="http://www.w3.org/2000/svg" xmlns:xlink="http://www.w3.org/1999/xlink">
    <!-- Generator: Sketch 52.2 (67145) - http://www.bohemiancoding.com/sketch -->
    <title>Logo</title>
    <desc>Created with Sketch.</desc>
    <defs>
        <polygon id="path-1" points="0 0 190 0 190 38 0 38"></polygon>
    </defs>
    <g id="webdesign-1920" stroke="none" stroke-width="1" fill="none" fill-rule="evenodd">
        <g id="shoplist" transform="translate(-210.000000, -3472.000000)">
            <g id="footer-section" transform="translate(0.000000, 3399.000000)">
                <g id="Inner">
                    <g id="Logo" transform="translate(210.000000, 73.876190)">
                        <g id="Fill-1">
                            <mask id="mask-2" fill="white">
                                <use xlink:href="#path-1"></use>
                            </mask>
                            <g id="Mask"></g>
                            <path d="M106.591794,18.2250364 C106.591794,19.6291695 107.727807,20.7682312 109.130554,20.7682312 C110.532239,20.7682312 111.668251,19.6291695 111.668251,18.2250364 C111.668251,16.8209032 110.532239,15.682906 109.130554,15.682906 C107.727807,15.682906 106.591794,16.8209032 106.591794,18.2250364 Z M121.54593,18.7871154 C119.950837,18.78818 117.371694,21.0290444 115.140051,21.3090194 C112.01575,21.699707 111.949864,24.391938 112.954103,26.5891562 C113.958343,28.7863743 115.149615,29.5996857 115.638451,31.0666269 C116.126225,32.5325036 116.189986,33.5629819 116.35364,36.866261 C120.595888,36.4521535 125.696787,28.5330129 123.79989,20.542548 C123.566099,19.555716 122.184606,18.7871154 121.54593,18.7871154 Z M123.185657,16.2247588 C123.06026,15.671196 122.918923,15.0633416 122.771209,14.4182281 C121.821166,10.2952504 120.386539,4.06447614 120.468365,2.01629408 C120.48218,1.66712375 120.524688,0.603644596 119.720234,0.552546499 C118.482203,0.480157528 117.607611,4.11557424 117.511969,5.23228057 C117.406763,6.46928035 117.140029,7.11226474 116.983814,7.30707623 C116.9073,7.24000998 116.759587,7.0771348 116.559801,6.69815724 C115.381281,4.46580912 114.849937,1.99287412 114.622522,0.936846772 C114.454618,0.156536245 114.046546,-0.0159198332 113.756432,0.00111286586 C112.911596,0.0096292154 112.490771,1.52766852 112.315428,2.43146612 C112.235726,2.8402509 112.180467,3.35761913 112.127332,3.85795467 C112.09864,4.12941331 112.05932,4.49135816 112.014687,4.81285036 C111.785147,4.47219638 111.531165,4.06873432 111.268681,3.65249773 C110.550304,2.51130689 109.806423,1.33179248 109.195378,0.767584325 C108.788369,0.391800401 108.427055,0.517416557 108.289968,0.588740985 C107.703365,0.894265025 107.812822,1.71289912 108.012607,3.20006666 C108.076368,3.68230496 108.143317,4.18051141 108.15607,4.38596834 C107.976475,4.58929618 106.906349,4.65529789 106.392009,4.68616966 C106.079579,4.70533145 105.774587,4.72449323 105.507853,4.75642954 L105.431339,4.76494589 C96.6705445,5.58251545 90.3167368,12.5456957 90.3167368,21.3409557 L90.3167368,21.4293129 C90.3167368,30.8760736 97.5228198,38 107.079567,38 C109.918005,38 112.582163,37.3751129 114.997651,36.1445003 L115.346212,35.9667215 L115.324959,35.5749695 C115.205938,33.3841385 115.10817,32.5176 114.725603,31.3710864 C114.552385,30.8505246 114.251644,30.4129971 113.906271,29.935017 L113.547083,29.4389396 L113.058246,29.8094008 C111.39089,31.0719496 109.353718,31.7404831 107.16777,31.7404831 C101.501521,31.7404831 97.2295181,27.2693996 97.2295181,21.3409557 L97.2295181,21.2515341 C97.2295181,15.3486393 101.463265,10.8967176 107.079567,10.8967176 C111.844657,10.8967176 115.734093,14.1329304 116.757461,18.9510552 L116.922178,19.7228493 L117.621426,19.3598399 C117.81271,19.2608374 118.001868,19.1607703 118.186776,19.0638968 C119.388675,18.4262351 120.522563,17.8247679 121.54593,17.8247679 C121.765907,17.8247679 122.198421,17.8609624 122.629872,18.0983557 L123.79989,18.7455982 L123.506589,17.4394031 C123.413072,17.0242311 123.304678,16.6154463 123.185657,16.2247588 Z M181.397546,7.38265884 L174.389123,18.7754054 L167.381762,7.38265884 L158.778245,7.38265884 L158.778245,36.8098402 L166.751588,36.8098402 L166.751588,19.9527908 L174.221218,31.4285718 L174.389123,31.4285718 L181.900197,19.910209 L181.900197,36.8098402 L190,36.8098402 L190,7.38265884 L181.397546,7.38265884 Z M145.436205,18.3964279 L134.987863,18.3964279 L134.987863,7.38265884 L126.846615,7.38265884 L126.846615,36.8098402 L134.987863,36.8098402 L134.987863,25.6278732 L145.436205,25.6278732 L145.436205,36.8098402 L153.577453,36.8098402 L153.577453,7.38265884 L145.436205,7.38265884 L145.436205,18.3964279 Z M78.7196295,22.9377713 L66.6336861,7.38265884 L59.0386594,7.38265884 L59.0386594,36.8098402 L67.0948924,36.8098402 L67.0948924,20.6670996 L79.6845496,36.8098402 L86.7769251,36.8098402 L86.7769251,7.38265884 L78.7196295,7.38265884 L78.7196295,22.9377713 Z M45.9899212,23.9458942 C45.9899212,28.0656783 43.8496689,29.9988896 40.535147,29.9988896 C37.2620699,29.9988896 35.1218175,27.9815793 35.1218175,23.7361791 L35.1218175,7.38265884 L26.8966173,7.38265884 L26.8966173,23.9033124 C26.8966173,33.1105508 32.1420421,37.3559511 40.4511947,37.3559511 C48.801792,37.3559511 54.2151215,33.152068 54.2151215,23.6935973 L54.2151215,7.38265884 L45.9899212,7.38265884 L45.9899212,23.9458942 Z M0,7.38265884 L23.5002685,7.38265884 L23.5002685,14.5300052 L8.14124793,14.5300052 L8.14124793,19.532296 L22.0316345,19.532296 L22.0316345,26.2996003 L8.14124793,26.2996003 L8.14124793,36.8098402 L0,36.8098402 L0,7.38265884 Z" fill="#FEFEFE" mask="url(#mask-2)"></path>
                        </g>
                    </g>
                </g>
            </g>
        </g>
    </g>
</svg>