<?xml version="1.0" encoding="UTF-8"?>
<svg width="100px" height="20px" viewBox="0 0 100 20" version="1.1" xmlns="http://www.w3.org/2000/svg" xmlns:xlink="http://www.w3.org/1999/xlink">
    <!-- Generator: Sketch 52.2 (67145) - http://www.bohemiancoding.com/sketch -->
    <title>Logo-fanohm-black</title>
    <desc>Created with Sketch.</desc>
    <defs>
        <polygon id="path-1" points="0 0 100 0 100 19.9129489 0 19.9129489"></polygon>
    </defs>
    <g id="Logo-fanohm-black" stroke="none" stroke-width="1" fill="none" fill-rule="evenodd">
        <g id="Logo">
            <mask id="mask-2" fill="white">
                <use xlink:href="#path-1"></use>
            </mask>
            <g id="Clip-2"></g>
            <path d="M56.1009441,9.55037413 C56.1009441,10.2861749 56.6988456,10.8830717 57.4371337,10.8830717 C58.1748624,10.8830717 58.7727639,10.2861749 58.7727639,9.55037413 C58.7727639,8.8145733 58.1748624,8.21823435 57.4371337,8.21823435 C56.6988456,8.21823435 56.1009441,8.8145733 56.1009441,9.55037413 Z M63.9715424,9.84491759 C63.1320193,9.84547544 61.774576,11.0197444 60.6000268,11.1664583 C58.955658,11.3711883 58.9209808,12.7819846 59.4495279,13.9333818 C59.9780751,15.0847789 60.6050606,15.5109744 60.8623428,16.2796882 C61.1190657,17.0478442 61.1526243,17.5878406 61.2387579,19.3188413 C63.47152,19.1018386 66.1562039,14.9520112 65.157837,10.7648081 C65.034789,10.2476835 64.3076871,9.84491759 63.9715424,9.84491759 Z M64.8345564,8.50217872 C64.7685579,8.21209803 64.6941698,7.89356712 64.6164258,7.55551155 C64.1164034,5.39496827 63.3613361,2.12988699 63.4044029,1.05658844 C63.4116739,0.873614471 63.4340463,0.316324841 63.0106492,0.289548163 C62.3590541,0.251614534 61.8987427,2.15666367 61.8484049,2.74184567 C61.7930332,3.39006444 61.6526467,3.72700432 61.5704282,3.8290904 C61.5301579,3.79394601 61.452414,3.70859535 61.3472639,3.51000165 C60.72699,2.34019549 60.4473355,1.0443158 60.3276433,0.490931102 C60.2392725,0.0820289011 60.0244977,-0.00834239013 59.8718063,0.000583169497 C59.4271556,0.00504594931 59.2056692,0.800536451 59.1133831,1.27414896 C59.071435,1.48836239 59.0423509,1.75947626 59.0143854,2.02166458 C58.9992841,2.16391568 58.9785896,2.35358383 58.9550987,2.52205377 C58.8342879,2.34354257 58.700613,2.13211838 58.5624636,1.91400002 C58.1843707,1.31598752 57.7928543,0.697892516 57.4712515,0.402233353 C57.2570361,0.205313194 57.066871,0.271139196 56.9947201,0.308514977 C56.6859815,0.468617203 56.7435903,0.897601912 56.8487404,1.67691484 C56.882299,1.92961974 56.9175355,2.19069236 56.9242472,2.29835693 C56.8297239,2.40490579 56.2664996,2.43949234 55.995794,2.45566992 C55.8313571,2.46571117 55.6708354,2.47575242 55.5304488,2.49248785 L55.4901785,2.49695063 C50.879234,2.92537749 47.5351246,6.57425784 47.5351246,11.1831937 L47.5351246,11.229495 C47.5351246,16.1798335 51.3277999,19.9129489 56.357667,19.9129489 C57.8515817,19.9129489 59.2537697,19.5854924 60.5250794,18.9406207 L60.7085328,18.8474602 L60.6973466,18.6421723 C60.634704,17.4941222 60.5832476,17.0400344 60.3818963,16.4392326 C60.2907289,16.1664452 60.1324444,15.9371699 59.9506689,15.6866964 L59.7616224,15.4267394 L59.5043402,15.6208704 C58.6267842,16.2824775 57.5545886,16.6328057 56.4040897,16.6328057 C53.4218533,16.6328057 51.1734306,14.2898463 51.1734306,11.1831937 L51.1734306,11.1363345 C51.1734306,8.04307024 53.4017182,5.7101521 56.357667,5.7101521 C58.8656092,5.7101521 60.9126807,7.40600843 61.4512954,9.93082611 L61.5379883,10.3352655 L61.9060137,10.1450395 C62.0066893,10.0931597 62.1062464,10.0407221 62.2035662,9.98995794 C62.8361448,9.6558073 63.4329276,9.34062348 63.9715424,9.34062348 C64.0873193,9.34062348 64.3149582,9.35959029 64.5420377,9.48399028 L65.157837,9.82316154 L65.0034677,9.13868269 C64.9542485,8.92112217 64.897199,8.70690874 64.8345564,8.50217872 Z M95.4723925,3.86869757 L91.7837487,9.83878127 L88.0956642,3.86869757 L83.5674974,3.86869757 L83.5674974,19.2892754 L87.7639939,19.2892754 L87.7639939,10.4557606 L91.6953779,16.4693564 L91.7837487,16.4693564 L95.7369457,10.4334467 L95.7369457,19.2892754 L100,19.2892754 L100,3.86869757 L95.4723925,3.86869757 Z M76.5453712,9.64018757 L71.0462437,9.64018757 L71.0462437,3.86869757 L66.7613763,3.86869757 L66.7613763,19.2892754 L71.0462437,19.2892754 L71.0462437,13.4296455 L76.5453712,13.4296455 L76.5453712,19.2892754 L80.8302385,19.2892754 L80.8302385,3.86869757 L76.5453712,3.86869757 L76.5453712,9.64018757 Z M41.431384,12.0199649 L35.0703611,3.86869757 L31.0729787,3.86869757 L31.0729787,19.2892754 L35.3131013,19.2892754 L35.3131013,10.8300762 L41.9392367,19.2892754 L45.6720659,19.2892754 L45.6720659,3.86869757 L41.431384,3.86869757 L41.431384,12.0199649 Z M24.2052217,12.5482465 C24.2052217,14.7071162 23.0787731,15.7201672 21.3342879,15.7201672 C19.6116157,15.7201672 18.4851671,14.6630463 18.4851671,12.4383505 L18.4851671,3.86869757 L14.1561144,3.86869757 L14.1561144,12.5259326 C14.1561144,17.3507554 16.9168643,19.5754511 21.2901025,19.5754511 C25.6851537,19.5754511 28.5342745,17.3725114 28.5342745,12.4160366 L28.5342745,3.86869757 L24.2052217,3.86869757 L24.2052217,12.5482465 Z M0,3.86869757 L12.3685624,3.86869757 L12.3685624,7.61408553 L4.28486733,7.61408553 L4.28486733,10.2354108 L11.5955971,10.2354108 L11.5955971,13.7816472 L4.28486733,13.7816472 L4.28486733,19.2892754 L0,19.2892754 L0,3.86869757 Z" id="Fill-1" fill="#000000" mask="url(#mask-2)"></path>
        </g>
    </g>
</svg>